<svg height="60" viewBox="0 0 60 60" width="60" xmlns="http://www.w3.org/2000/svg"><g style="stroke:#1106ff;stroke-width:2;fill:none;fill-rule:evenodd;stroke-linecap:round;stroke-linejoin:round" transform="translate(1 7)"><path d="m41.3047 24.334929c.2740968 2.8719355-1.8326129 5.4220645-4.7026774 5.6970968-2.8738065.2740968-5.423-1.8316774-5.6970968-4.7036129-.2750323-2.8719355 1.8307419-5.4220645 4.7026774-5.6961613 2.871-.2740968 5.4220645 1.8307419 5.6970968 4.7026774z"/><path d="m46.7659613 22.273029-1.3517742.0168387c-.3891613-1.4322258-1.0945161-2.7213225-2.031871-3.795258l.783-1.1235162c.3349033-.4817741.2385484-1.1796451-.2142258-1.5547741l-.5238709-.4321936c-.4527742-.3741935-1.1581291-.3358387-1.5669355.0841936l-.9616774.9878709c-1.2310968-.7053548-2.6249678-1.1450322-4.0992904-1.2507419l-.2441613-1.3639355c-.1038387-.5771935-.667-1.0037742-1.2507419-.9476452l-.6763548.0645484c-.5846775.0551936-1.0552258.5809355-1.0486775 1.1674839l.0187097 1.3854516c-1.4275484.3826129-2.7119677 1.0786129-3.7868387 2.0047419l-1.1319355-.7886129c-.4827096-.3339677-1.1815161-.2394838-1.5538387.2142259l-.433129.5238709c-.3732581.4527742-.3358387 1.1571936.085129 1.566l.9794516.9560645c-.7165806 1.2329678-1.1656129 2.6315162-1.2769355 4.1114516l-1.330258.2394839c-.578129.1019678-1.0037742.6641936-.9476452 1.248871l.0645484.6763548c.056129.5846774.5809355 1.0561613 1.1674839 1.047742l1.3377419-.0187097c.378871 1.448129 1.0823549 2.7493871 2.0197097 3.8345484l-.7549355 1.0860967c-.3367742.4827097-.2385484 1.1815162.2132903 1.5547742l.523871.4331291c.4527742.3723226 1.1571935.3339677 1.566-.0851291l.9158387-.9410967c1.2460645.7259354 2.6623871 1.1777742 4.1591613 1.2825484l.230129 1.2844193c.1047742.578129.6660645 1.0047097 1.2498065.9485807l.6763548-.0654839c.583742-.0561291 1.0561613-.58 1.0486774-1.1674839l-.0177742-1.3040645c1.451871-.3863548 2.7559355-1.100129 3.8420323-2.0468387l1.0767419.7493226c.4827097.3349032 1.1815162.2394838 1.5547742-.2132904l.4331291-.5248064c.375129-.4509032.3367742-1.1562581-.0851291-1.566l-.9467096-.9223871c.7147096-1.2432581 1.1571935-2.6558387 1.2563548-4.1460645l1.3171613-.2376129c.5771935-.1038387 1.0037742-.6641936.9485806-1.2479355l-.0654838-.6782258c-.0561291-.5828065-.5809355-1.0542903-1.1674839-1.0468065z"/><path d="m58 43.9677419h-58v-40.21270964c0-2.27416129 1.87190323-3.75503226 4.14512903-3.75503226h49.73593547c2.2722903 0 4.1189355 1.48087097 4.1189355 3.75503226z"/><path d="m0 7.48387097h52.3870968"/><path d="m21.8888258 31.2016613c.6314516 2.7877419-1.1179032 5.5605161-3.9065806 6.1929032-2.7896129.6305161-5.5623871-1.1179032-6.1938387-3.9065806-.6314517-2.7886774 1.1169677-5.5614516 3.9075161-6.1929033 2.7886774-.6314516 5.5614516 1.1179033 6.1929032 3.9065807z"/><path d="m21.8888258 31.2016613 1.4883548-.3367742"/><path d="m10.3039806 33.8409419 1.4883549-.3367742"/><path d="m15.6894677 27.3035-.3358387-1.4874194"/><path d="m18.3278129 38.8892806-.3358387-1.4883548"/><path d="m19.5967032 27.969471.8129355-1.2900323"/><path d="m13.2694645 38.0273258.8176129-1.2909677"/><path d="m12.4572774 29.5965581-1.2909677-.8129355"/><path d="m22.5146645 35.9220194-1.2909677-.813871"/></g></svg>