<svg xmlns="http://www.w3.org/2000/svg" width="60" height="60" viewBox="0 0 60 60">
  <g fill="none" fill-rule="evenodd" transform="translate(3 5)">
    <path stroke="#1106FF" stroke-linecap="round" stroke-linejoin="round" stroke-width="2" d="M9.75781915 39.8607234C10.8578191 40.9724255 12.0865426 41.9905106 13.408883 42.8798723 13.4685638 42.9149787 13.5270745 42.9500851 13.5855851 42.9851915 15.3631383 44.1437021 17.3185638 45.0798723 19.4471809 45.7468936 25.9301596 47.7713617 32.6366489 46.8351915 38.0898404 43.6873191 39.4121809 42.9266809 40.6631383 42.0373191 41.8216489 41.0309362 41.915266 40.9490213 41.9983511 40.8788085 42.0919681 40.7968936 42.4430319 40.469234 42.7929255 40.1415745 43.1334574 39.7905106M33.384883 1.06828723C28.3061596-.5115 23.0987128-.289159574 18.4646702 1.40764894 16.2529681 2.20339362 14.1582872 3.32679787 12.2859468 4.75445745 12.2742447 4.75445745 12.2742447 4.76615957 12.2742447 4.76615957 9.42009574 6.91935106 7.03169149 9.75126596 5.40509574 13.1097766 5.40509574 13.1097766 5.38169149 13.1214787 5.38169149 13.1331809 5.19445745 13.5193511 5.0072234 13.9289255 4.84339362 14.3385 4.76147872 14.5023298 4.69126596 14.6778617 4.63275532 14.8533936 4.42211702 15.3682872 4.23488298 15.894883 4.07105319 16.4331809 2.04658511 22.9278617 2.99445745 29.644883 6.15403191 35.1097766M39.434883 3.94689362C47.6509468 9.44689362 51.7466915 19.7798723 48.9604149 29.7266809"/>
    <path stroke="#1106FF" stroke-linecap="round" stroke-linejoin="round" stroke-width="2" d="M28.3337766 12.6646277C27.5614362 15.1337766 24.9413298 16.5146277 22.4710106 15.7422872 21.3593085 15.3912234 20.4699468 14.6656915 19.9082447 13.7646277 19.206117 12.6412234 18.9720745 11.2369681 19.3933511 9.87952128 19.8965426 8.29973404 21.1603723 7.15292553 22.6477128 6.75505319 23.4785638 6.52101064 24.3784574 6.52101064 25.256117 6.8018617 27.725266 7.57420213 29.106117 10.1954787 28.3337766 12.6646277zM17.4979574 25.4786915C16.9245532 27.3042234 14.982 28.3223085 13.1564681 27.7489043 11.3309362 27.1755 10.3128511 25.2446489 10.8862553 23.419117 11.4596596 21.5935851 13.3905106 20.5755 15.2160426 21.1372021 17.0415745 21.7106064 18.0596596 23.6531596 17.4979574 25.4786915zM39.9617128 23.9108404C38.6826702 24.0992447 37.493734 23.215734 37.3041596 21.9366915 37.1157553 20.6588191 38.0004362 19.4687128 39.2794787 19.2803085"/>
    <path fill="#1106FF" d="M25.8688404 24.6553298C25.6769255 25.2720319 25.0204362 25.6160745 24.403734 25.4241596 23.7870319 25.2310745 23.4429894 24.5757553 23.6349043 23.957883 23.8279894 23.3411809 24.4833085 22.9971383 25.1011809 23.1902234 25.717883 23.3821383 26.0619255 24.0386277 25.8688404 24.6553298M37.6978191 14.8627553C37.5059043 15.4794574 36.8494149 15.8235 36.2327128 15.6315851 35.6160106 15.4385 35.2719681 14.7831809 35.463883 14.1653085 35.6569681 13.5486064 36.3122872 13.2045638 36.9301596 13.3976489 37.5468617 13.5895638 37.8909043 14.2460532 37.6978191 14.8627553"/>
    <path stroke="#1106FF" stroke-linecap="round" stroke-linejoin="round" stroke-width="2" d="M54.0877021,29.7258617 L29.9075957,29.7258617"/>
    <polyline stroke="#1106FF" stroke-linecap="round" stroke-linejoin="round" stroke-width="2" points="2.093 35.11 5.487 35.11 6.74 35.11 14.499 35.11 25.579 35.11 32.239 35.11"/>
    <path stroke="#1106FF" stroke-linecap="round" stroke-linejoin="round" stroke-width="2" d="M48.6606064 39.7903936L29.4340106 39.7903936M41.8518404 43.6912979L25.9229043 43.6912979M25.3968936 46.8116702L9.97934043 46.8116702M22.038266 39.8595532L-.00035106383 39.8595532"/>
  </g>
</svg>
