<svg height="60" viewBox="0 0 60 60" width="60" xmlns="http://www.w3.org/2000/svg"><path d="m500.517305 4899.14298 3.62129 3.51194c.472249.45799.689075 1.11892.579894 1.76765l-.715137 4.24921-1.72564 10.25803c-.590216 3.49843.745875 4.46414 3.87702 2.8076l8.035232-4.25907 4.951935-2.62452c.582162-.30854 1.278938-.31057 1.862883-.00541l5.229731 2.73293 5.091147 2.66071 2.706689 1.41239c3.141523 1.6413 4.46918.6693 3.859308-2.82954l-1.511391-8.68325-1.014193-5.80451c-.113275-.64831.099647-1.31085.569402-1.77179l3.247493-3.18653 7.246691-7.11313c2.531429-2.48394 2.01733-4.05095-1.491998-4.55209l-10.451944-1.48747-4.095484-.58355c-.651736-.09286-1.216034-.5005-1.508967-1.09006l-1.845553-3.71433-4.698678-9.45833c-1.577108-3.17729-3.223016-3.17269-4.781205.01226l-4.260994 8.70586-2.205484 4.50581c-.289494.59144-.851566 1.00248-1.502929 1.09908l-3.62129.5371-10.915015 1.61998c-3.449905.51194-3.993493 2.04087-1.583404 4.44345zm-6.931642-6.72261-1.391877 1.43463-.116996-.1135c-.615251-.61361-1.09052-1.22536-1.430155-1.82168.706394-.54908 1.738512-.66561 2.595386.16562l.224693.21796c.038881.03876.078531.07775.118949.11697zm-1.431888 1.39721-.304323-.29661.227338.22053c.025423.02536.051084.05072.076985.07608zm1.435167-1.39403-.343549-.33483-1.38979 1.42594c-3.320792-3.50461-2.082954-6.89348 2.900945-7.63305l10.915162-1.62 3.62129-.53709 2.205484-4.50581 4.260968-8.70581c2.286774-4.67419 6.054193-4.6858 8.369032-.02225l4.698387 9.45774 1.845484 3.71419 4.095484.58355 10.451613 1.48742c5.150322.73548 6.325161 4.31516 2.610967 7.95968l-7.246451 7.1129-3.247742 3.18677 1.014193 5.80452 1.511613 8.68452c.894194 5.13-2.143548 7.35483-6.755806 4.94516l-2.705807-1.41194-5.092258-2.66129-5.229677-2.7329-4.951936 2.62451-8.035161 4.25904c-4.596774 2.43193-7.651935.22645-6.785806-4.90742l1.725484-10.2571.715161-4.24935-3.621291-3.51194-7.495617-7.33114zm25.394449-15.60634c.072254-.25471.253001-.46306.479361-.59237.021039-.01212.04249-.02346.064305-.034.428306-.20897.989488-.14361 1.299447.39582.007075.01214.013889.02442.020438.03683l6.2866 11.55702c.534268.98218-.700633 1.96731-1.539537 1.22815-.735366-.64793-1.341647-1.4375-1.786711-2.32985l-1.845582-3.71439-1.992755-4.01283-1.586994 3.23965-2.203047 4.5087c-1.110656 2.26694-3.266255 3.84266-5.761713 4.21203l-3.620856.53911-4.905636.7277 2.56851 2.49126 3.621123 3.51371c1.811171 1.75662 2.642646 4.2907 2.224457 6.78204l-.714191 4.2474-.71685 4.26355 2.663465-1.41218 4.954865-2.62305c1.109764-.58901 2.339539-.89283 3.58591-.89283 1.234676 0 2.452883.2963 3.548052.87132l5.22991 2.73109 2.411008 1.25985-.470231-2.69466-1.012254-5.80449c-.434046-2.48853.383273-5.03197 2.185506-6.79861l3.247516-3.18558 2.908945-2.85528-4.43877-.63201c-.54677-.07786-.926904-.58421-.849052-1.13098s.584208-.92691 1.130979-.84905l6.443225.91741c.820281.1168 1.150835 1.12328.55953 1.70368l-4.354097 4.27377-3.24799 3.18605c-1.332167 1.30585-1.93653 3.18659-1.615532 5.02698l1.012239 5.80441.81871 4.69161c.142514.81668-.713482 1.44214-1.448237 1.0582l-4.207509-2.19859-5.231655-2.732c-.808435-.42447-1.707389-.64312-2.620293-.64312-.920657 0-1.828369.22425-2.649225.65992l-4.955244 2.62325-4.453548 2.36129c-.732361.3883-1.592036-.23184-1.454593-1.0493l1.052906-6.26227.714146-4.24714c.309313-1.84272-.305422-3.71624-1.644695-5.01518l-3.621138-3.51372-4.021935-3.90097c-.594794-.5769-.270148-1.58541.549495-1.70699l6.908177-1.02476 3.621169-.53916c1.844868-.27307 3.438366-1.4379 4.258909-3.1127l2.203022-4.50864z" fill="#1106ff" transform="translate(-490 -4866)"/></svg>