<svg height="60" viewBox="0 0 60 60" width="60" xmlns="http://www.w3.org/2000/svg"><g style="stroke:#fff;stroke-linecap:round;stroke-linejoin:round;stroke-width:2;fill:none;fill-rule:evenodd" transform="translate(2 4)"><path d="m21.6774194 14.3748387v26.5665807c0 2.2950967-1.4171613 4.1430967-3.7140646 4.1430967h-13.91870964c-2.29690322 0-4.04464516-1.848-4.04464516-4.1430967v-34.33522585c0-2.29509678 1.74774194-3.97329032 4.04464516-3.97329032h13.91870964c2.2969033 0 3.9443871 1.9076129 3.9443871 4.20270967"/><path d="m29.2622581 15.2171871-7.1815484 26.804129"/><path d="m9.69649032 2.43094194c.83277418-1.80825807 2.88761288-2.8207742 4.87380648-2.28967742l13.4427097 3.60567742c2.2174193.59432258 3.5460645 2.8912258 2.9535483 5.11045161"/><path d="m35.8688129 18.5072774-14.1354839 24.483742"/><path d="m19.9812516 1.5912129c1.2663226-1.56980645 3.5388387-2.03225806 5.3380645-.99535483l12.0526452 6.96025806c1.988 1.148 2.6762581 3.71496777 1.5291613 5.70116127l-.3721291.644-.4145806.7180645"/><path d="m41.6198323 23.2527355-20.6450323 20.6450322"/><path d="m30.1196 3.36767742c1.6230968-1.092 3.8594839-.92219355 5.2883871.5076129l4.1006452 4.09883871 5.7436129 5.74180647c1.6212903 1.6267097 1.6212903 4.2830968 0 5.9043871l-.8011613.7993548"/><path d="m47.5790452 28.7744258-27.2747097 15.7450323"/><path d="m39.3723355 7.83792258c.2068387-.09032258.42-.15716129.6313548-.20954839 1.7540645-.42180645 3.6589678.33329033 4.6046452 1.96812904l6.9593548 12.05264517c1.148 1.9916129.4588387 4.5549677-1.5291613 5.7047742l-1.0901935.6304516"/><path d="m47.4078839 14.4498065c2.080129-.3314839 4.1313548.9646451 4.6868387 3.0411612l3.6029677 13.4427097c.2890323 1.0793549.1219355 2.1785807-.3793548 3.0944516-.5292903.9628387-1.4343226 1.7161291-2.5741936 2.0196129l-33.1637419 8.887742"/><path d="m55.0606452 34.0129548.1472258 6.9051613c-.0018065 2.2950968-1.7314839 4.1665807-4.0283871 4.1665807h-34.9214194"/><path d="m53.5179355 23.7952129c.9610322.7677419 1.5788387 1.9094194 1.5788387 3.2272258v2.7069678"/><path d="m18.7357935 39.8230452c0 .9565161-.7758709 1.7287742-1.7305806 1.7287742-.9583226 0-1.7323871-.7722581-1.7323871-1.7287742 0-.9565162.7740645-1.7341936 1.7323871-1.7341936.9547097 0 1.7305806.7776774 1.7305806 1.7341936z"/></g></svg>