<svg height="60" viewBox="0 0 60 60" width="60" xmlns="http://www.w3.org/2000/svg"><g fill="none" fill-rule="evenodd" stroke="#1106ff" transform="translate(3 1)"><path d="m46.1735833 57.2411475-6.2028571-13.1291803 5.8954762-3.5947541-18.5183036-13.4577049 1.4349107 22.7626229 6.235625-2.9468852 4.4670834 11.0632787" stroke-linecap="round" stroke-linejoin="round" stroke-width="2"/><g fill-rule="nonzero" stroke-dasharray="4" stroke-linecap="square"><path d="m24.2709435 32.532c-1.9063393-1.0760656-3.1939286-3.1239344-3.1939286-5.4718033 0-3.4681967 2.8059821-6.2783606 6.2709821-6.2783606 3.4620536 0 6.2690179 2.8101639 6.2690179 6.2783606"/><path d="m24.215256 43.1518033c-7.5408929-1.462623-13.234375-8.1118033-13.234375-16.0918033 0-9.0531148 7.3258035-16.3908197 16.3664285-16.3908197 9.0396429 0 16.3674107 7.3377049 16.3674107 16.3908197 0 2.1216393-.4036607 4.1488525-1.1363392 6.0098361"/><path d="m34.7215327 53.0974426c-2.344375.6659017-4.8164285 1.0209836-7.3739285 1.0209836-14.9216965 0-27.02071432-12.1131147-27.02071432-27.0590164 0-14.9439344 12.09901782-27.05901636 27.02071432-27.05901636 14.9226785 0 27.01875 12.11508196 27.01875 27.05901636 0 8.0734427-3.5298215 15.3216394-9.1290179 20.28"/></g></g></svg>