<svg height="60" viewBox="0 0 60 60" width="60" xmlns="http://www.w3.org/2000/svg"><g fill="none" fill-rule="evenodd" transform="translate(1 3)"><g stroke="#1106ff" stroke-linecap="round"><path d="m16 3 6.815 6.815" fill-rule="nonzero" stroke-dasharray="4"/><path d="m26 13 3.7634516 3.7634516" fill-rule="nonzero" stroke-dasharray="4"/><path d="m20 14 13.3858387 13.3867742" fill-rule="nonzero" stroke-dasharray="4"/><path d="m34.5380968 41.1612903h-30.82422583c-2.04216129 0-3.71387097-1.2937742-3.71387097-3.3359355l.01029032-34.2059677c0-2.04122581 1.66141936-3.6193871 3.70358065-3.6193871h50.55354843c2.0421612 0 3.712 1.44251613 3.712 3.48374194l-.0102904 34.45667746c0 2.0421612-1.6707742 3.2208709-3.7129355 3.2208709h-1.879387" stroke-linejoin="round" stroke-width="2"/><path d="m34.7419355 33.8806686h-30.83825808c-.51358065 0-.90367742-.9551291-.90367742-1.4715162v-28.99251609c0-.5163871.39009677-.40693548.90367742-.40693548h43.99954838" stroke-linejoin="round" stroke-width="2"/><path d="m52 3.00970083h1.2432581.6520322c.5135807 0 .9111613-.10945162.9111613.40693548v28.99251609c0 .5163871-.3975806 1.4715162-.9111613 1.4715162h-1.8952903" stroke-linejoin="round" stroke-width="2"/><path d="m21 46.6129032v-4.6129032" stroke-linejoin="round" stroke-width="2"/><path d="m18 47h16.7741935" stroke-linejoin="round" stroke-width="2"/><path d="m52 52.109c0 1.597-1.2230556 2.891-2.7322778 2.891h-11.5354444c-1.5092222 0-2.7322778-1.294-2.7322778-2.891v-23.219c0-1.596 1.2230556-2.89 2.7322778-2.89h11.5354444c1.5092222 0 2.7322778 1.294 2.7322778 2.89z" stroke-linejoin="round" stroke-width="2"/><path d="m38 32h11v16h-11z" fill-rule="nonzero" stroke-linejoin="round" stroke-width="2"/></g><path d="m44.8064516 51.4032258c0 .7773871-.6272419 1.4032258-1.4032258 1.4032258-.7731774 0-1.4032258-.6258387-1.4032258-1.4032258 0-.7731774.6300484-1.4032258 1.4032258-1.4032258.7759839 0 1.4032258.6300484 1.4032258 1.4032258z" fill="#1106ff"/><path d="m42 29h2.8064516" stroke="#1106ff" stroke-linecap="round" stroke-linejoin="round" stroke-width="2"/></g></svg>