<svg height="60" viewBox="0 0 60 60" width="60" xmlns="http://www.w3.org/2000/svg"><g style="stroke:#1106ff;stroke-width:2;fill:none;fill-rule:evenodd;stroke-linecap:round;stroke-linejoin:round" transform="translate(5 2)"><path d="m50.5577032 30.7088645c0 13.9611613-11.3174193 25.2785807-25.2785806 25.2785807s-25.27948389-11.3174194-25.27948389-25.2785807 11.31832259-25.27858063 25.27948389-25.27858063 25.2785806 11.31741933 25.2785806 25.27858063z"/><path d="m46.0671355 30.7088645c0 11.4809032-9.307742 20.7895484-20.7886452 20.7895484s-20.78774191-9.3086452-20.78774191-20.7895484 9.30683871-20.78954837 20.78774191-20.78954837 20.7886452 9.30864517 20.7886452 20.78954837z"/><path d="m27.7256903 30.7088645c0 1.3512258-1.0956129 2.4468387-2.4468387 2.4468387s-2.4468387-1.0956129-2.4468387-2.4468387c0-1.352129 1.0956129-2.4468387 2.4468387-2.4468387s2.4468387 1.0947097 2.4468387 2.4468387z"/><path d="m28.0212258 2.71500645c0 1.49935484-1.2157419 2.71509678-2.7150968 2.71509678-1.4993548 0-2.7150967-1.21574194-2.7150967-2.71509678s1.2157419-2.71509677 2.7150967-2.71509677c1.4993549 0 2.7150968 1.21574193 2.7150968 2.71509677z"/><path d="m25.2788516 27.9938581v-9.9354839"/><path d="m27.988529 30.7035355h9.9354839"/><path d="m7.27259355 12.7034194-2.78193549-2.78374198"/><path d="m1.86028387 12.5499613 5.25948387-5.25948388"/><path d="m43.4651226 12.5499613 2.6301935-2.63019356"/><path d="m48.7247871 12.5499613-5.2594839-5.25948388"/></g></svg>