<svg height="60" viewBox="0 0 60 60" width="60" xmlns="http://www.w3.org/2000/svg"><g style="stroke:#1106ff;stroke-width:2;fill:none;fill-rule:evenodd;stroke-linecap:round;stroke-linejoin:round" transform="translate(1 14)"><path d="m28.9798871 0c-13.4569355 0-24.87825807 6.19570968-28.98035484 14.8030968 4.10209677 8.6073871 15.52341934 14.8030967 28.98035484 14.8030967 13.4588064 0 24.880129-6.1957096 28.9812903-14.8030967-4.1011613-8.60738712-15.5224839-14.8030968-28.9812903-14.8030968z"/><path d="m41.9980806 2.68399677c1.2825484 2.21241936 2.0150323 4.78312904 2.0150323 7.52409673 0 8.3042904-6.7326774 15.0388388-15.0388387 15.0388388-8.3042903 0-15.0388387-6.7345484-15.0388387-15.0388388 0-3.06370963.9167742-5.91599995 2.492129-8.29306447"/><path d="m35.6561548 13.652171c-1.2114516 2.1909032-3.5482903 3.6727096-6.2303225 3.6727096-3.9280968 0-7.1171613-3.188129-7.1171613-7.1171612 0-2.15348392.9579355-4.07964521 2.4668709-5.38558069 1.2460646-1.07674194 2.8700646-1.73064516 4.6502904-1.73064516.694129 0 1.363.0982258 1.997258.28345161"/><path d="m38.4681258 9.83464271c0 1.16201739-1.0723678 2.10358249-2.3958131 2.10358249-1.3225256 0-2.3948933-.9415651-2.3948933-2.10358249 0-.63551609.3218942-1.20481576.8277281-1.59161654.4203019-.3181618.9666025-.51115843 1.5671652-.51115843.5959643 0 1.1422648.19138159 1.5607274.50792836.5095126.38518574.8350857.95933052.8350857 1.59484661z"/></g></svg>