<svg height="142" viewBox="0 0 942 142" width="942" xmlns="http://www.w3.org/2000/svg"><g fill="none" fill-rule="evenodd"><rect fill-rule="nonzero" height="57" rx="28.5" stroke="#1106ff" stroke-width="3" width="161" x="2.5" y="13.5"/><path d="m35.3105469 39.1513672v-9.953125h2.7753906c1.9915464 0 3.4794873.4226846 4.4638672 1.2680664s1.4765625 2.0610272 1.4765625 3.6469726c0 1.6451906-.4819288 2.8961546-1.4458008 3.7529297-.963872.8567752-2.3686431 1.2851563-4.2143555 1.2851563zm1.7363281-1.4902344h1.4082031c1.203131 0 2.1259734-.3007782 2.7685547-.9023437.6425814-.6015655.9638672-1.4856713.9638672-2.6523438 0-1.1074274-.3247038-1.9539359-.9741211-2.5395508s-1.639479-.8784179-2.9702148-.8784179h-1.1962891zm10.2539062-2.8574219h3.4863282c-.0820317-.4967472-.2666002-.8772773-.553711-1.1416015-.2871108-.2643243-.6380187-.3964844-1.0527343-.3964844-.4876327 0-.8955062.1367174-1.2236329.4101562-.3281266.2734389-.5468744.6494117-.65625 1.1279297zm2.0029297 4.5048829c-1.1803444 0-2.1111619-.3372363-2.7924804-1.0117188s-1.0219727-1.5563097-1.0219727-2.6455078c0-.49219.0820304-.9593077.2460938-1.4013672.1640633-.4420595.3953435-.8339827.6938476-1.1757812.2985041-.3417986.6767555-.6129548 1.1347656-.8134766s.9650038-.3007813 1.5209961-.3007813c.5559924 0 1.0413391.0957022 1.4560547.2871094s.7428374.4591454.984375.8032227c.2415377.3440772.4204096.7303038.5366211 1.1586914.1162115.4283875.1743164.9023411.1743164 1.421875 0 .1321621-.0113931.2324215-.0341797.3007812h-4.921875c.0273439.6835972.2358379 1.1894515.6254883 1.5175782.3896504.3281266.9080371.4921874 1.5551758.4921874.7565142 0 1.4947881-.2506485 2.2148437-.7519531l.4580079 1.2304688c-.4420595.30534-.8875303.5297844-1.3364258.6733398s-.9467746.2153321-1.4936524.2153321zm5.475586-.1572266v-5.8789063h-1.3056641v-1.1347656h1.3056641v-.2734375c0-.319012.0068358-.5833323.0205078-.7929687.0136719-.2096365.043294-.4249664.0888672-.6459961.0455731-.2210298.1105139-.3987624.1948242-.5332032.0843103-.1344407.1982415-.2643222.3417969-.3896484.1435554-.1253261.3201487-.2210283.5297851-.2871094.2096365-.066081.4614243-.1184894.7553711-.1572265.2939468-.0387372.6346009-.0581055 1.0219727-.0581055h.3623047l-.0615235 1.3193359c-.2597669 0-.4659823.0045573-.6186523.0136719-.1526701.0091146-.2939447.0353188-.4238281.0786133-.1298835.0432945-.2244464.0934242-.2836915.1503906-.059245.0569664-.1093747.15039-.1503906.2802735-.0410158.1298834-.0660807.2666008-.0751953.4101562s-.0136719.3406563-.0136719.5913086v.2939453h1.5791016v1.1347656h-1.5791016v5.8789063zm4.7919922-8.4628906v-1.4902344h1.640625v1.4902344zm.0068359 8.4628906v-7.0136719h1.6337891v7.0136719zm3.6845703 0v-4.3408203c0-.4967473-.0113931-.967283-.0341797-1.4116211-.0227865-.4443382-.0455728-.7644847-.0683594-.9604492l-.0341796-.3007813h1.7978515v.9365235c.2415377-.3645852.5639629-.6414379.9672852-.8305665.4033223-.1891285.7941062-.2836914 1.1723633-.2836914.4056009 0 .7610661.0535477 1.0664062.1606446s.5753569.2802722.8100586.5195312.4135736.5685201.5366211.987793.1845703.9274059.1845703 1.5244141v3.9990234h-1.6953125v-4.1152344c0-.6197948-.0968415-1.0584297-.2905273-1.315918-.1936859-.2574882-.5138324-.3862304-.9604492-.3862304-.1640634 0-.3440746.0364579-.5400391.109375-.1959645.072917-.3862296.1743157-.5708008.3041992s-.3383783.3007802-.4614258.5126953-.1845703.4431954-.1845703.6938477v4.1972656zm9.8369141-4.3476563h3.4863281c-.0820317-.4967472-.2666001-.8772773-.5537109-1.1416015-.2871108-.2643243-.6380188-.3964844-1.0527344-.3964844-.4876327 0-.8955062.1367174-1.2236328.4101562-.3281267.2734389-.5468745.6494117-.65625 1.1279297zm2.0029297 4.5048829c-1.1803445 0-2.111162-.3372363-2.7924805-1.0117188s-1.0219727-1.5563097-1.0219727-2.6455078c0-.49219.0820305-.9593077.2460938-1.4013672s.3953435-.8339827.6938476-1.1757812c.2985041-.3417986.6767556-.6129548 1.1347657-.8134766s.9650037-.3007813 1.5209961-.3007813c.5559923 0 1.041339.0957022 1.4560547.2871094.4147156.1914072.7428373.4591454.984375.8032227.2415376.3440772.4204095.7303038.536621 1.1586914.1162116.4283875.1743164.9023411.1743164 1.421875 0 .1321621-.0113931.2324215-.0341796.3007812h-4.921875c.0273438.6835972.2358379 1.1894515.6254882 1.5175782.3896504.3281266.9080372.4921874 1.5551758.4921874.7565142 0 1.4947881-.2506485 2.2148438-.7519531l.4580078 1.2304688c-.4420595.30534-.8875303.5297844-1.3364258.6733398s-.9467746.2153321-1.4936523.2153321zm9.0986328-.1572266v-9.953125h6.0771484v1.4902344h-4.3408203v2.7138672h4.0878906v1.4970703h-4.0878906v4.2519531zm9.078125-4.3476563h3.4863281c-.0820317-.4967472-.2666001-.8772773-.5537109-1.1416015-.2871108-.2643243-.6380188-.3964844-1.0527344-.3964844-.4876327 0-.8955062.1367174-1.2236328.4101562-.3281267.2734389-.5468745.6494117-.65625 1.1279297zm2.0029297 4.5048829c-1.1803445 0-2.111162-.3372363-2.7924805-1.0117188s-1.0219727-1.5563097-1.0219727-2.6455078c0-.49219.0820305-.9593077.2460938-1.4013672s.3953435-.8339827.6938476-1.1757812c.2985041-.3417986.6767556-.6129548 1.1347657-.8134766s.9650037-.3007813 1.5209961-.3007813c.5559923 0 1.041339.0957022 1.4560546.2871094.4147157.1914072.7428374.4591454.984375.8032227.2415377.3440772.4204096.7303038.5366211 1.1586914.1162116.4283875.1743165.9023411.1743165 1.421875 0 .1321621-.0113932.2324215-.0341797.3007812h-4.921875c.0273438.6835972.2358379 1.1894515.6254882 1.5175782.3896504.3281266.9080372.4921874 1.5551758.4921874.7565142 0 1.4947881-.2506485 2.2148438-.7519531l.4580078 1.2304688c-.4420595.30534-.8875303.5297844-1.3364258.6733398s-.9467746.2153321-1.4936523.2153321zm8.0937504-1.3671876c.656253 0 1.133624-.208494 1.432128-.6254882.298505-.4169943.447754-.9741176.447754-1.6713868 0-.7154983-.158364-1.2794575-.475097-1.6918945-.316734-.4124369-.796384-.6186523-1.438965-.6186523-.62891 0-1.110838.2073547-1.445801.6220703s-.502441.9729782-.502441 1.6748047c0 .7018264.167478 1.2623677.502441 1.6816406s.828285.6289062 1.479981.6289062zm-.211915 1.3671876c-.569664 0-1.080075-.1025381-1.53125-.3076172-.451174-.2050792-.813475-.478514-1.086914-.8203125-.273438-.3417986-.480793-.7223287-.6220699-1.1416016-.1412767-.4192729-.211914-.8590472-.211914-1.3193359 0-.4876327.0729159-.9513325.21875-1.3911133.1458339-.4397809.3588849-.8385399.6391599-1.1962891s.650551-.642577 1.11084-.8544922c.460289-.2119151.982093-.3178711 1.56543-.3178711.84766 0 1.499346.3076141 1.955078.9228516v-.7451172h1.661133v7.0136719h-1.702149v-.9570313c-.510419.7428423-1.175777 1.1142579-1.996094 1.1142579zm9.679688-.1640626h-.683594c-.273439 0-.510415-.0068358-.710937-.0205078-.200522-.0136719-.406737-.043294-.618653-.0888672-.211915-.0455731-.391926-.1059566-.540039-.1811523-.148112-.0751957-.290526-.1765944-.427246-.3041992-.136719-.1276048-.246093-.2814119-.328125-.4614258-.082031-.1800139-.146972-.3953438-.194824-.6459961s-.071777-.5377588-.071777-.8613281v-3.3085938h-1.462891v-1.1347656h1.53125v-1.640625l1.620117-.4990234v2.1396484h1.832031v1.1347656h-1.832031v3.4111329c0 .218751.01709.3953443.05127.5297851s.085449.2460933.153808.3349609c.06836.0888677.183431.1538084.345215.1948243.161785.0410158.338378.0683593.529785.0820312.191408.013672.460285.0205078.806641.0205078zm4.033203.1640626c-.84766 0-1.508461-.2426734-1.982422-.7280274-.47396-.485354-.710937-1.1518512-.710937-1.9995117v-4.4433594h1.68164v4.4160156c0 .4648461.120767.8123361.362305 1.0424805s.574217.3452148.998047.3452148c.505862 0 .880695-.1264635 1.124512-.3793945.243816-.2529309.365722-.6596651.365722-1.2202148v-4.2041016h1.695313v5.1269531l.082031 1.8867188h-1.75l-.027344-1.0390625c-.022786.1002609-.074055.2107741-.153808.331543-.079753.1207688-.189127.249511-.328125.3862304-.138998.1367195-.328124.2506506-.567383.3417969s-.50244.1367188-.789551.1367188zm5.632813-.1572266v-5.2363281c0-.2734389-.011393-.5582668-.03418-.8544922-.022787-.2962255-.045573-.5240878-.068359-.6835938l-.03418-.2392578h1.804687v.9228516c.277997-.3645852.554849-.6391593.830567-.8237305.275717-.1845712.586749-.2768555.933105-.2768555.205079 0 .437499.0341794.697266.1025391v1.4833984c-.30534-.1002609-.587889-.1503906-.847656-.1503906-.469404 0-.852212.1526678-1.148438.4580078-.296225.3053401-.444336.747393-.444336 1.3261719v3.9716797zm6.774414-4.3476563h3.486328c-.082032-.4967472-.2666-.8772773-.553711-1.1416015-.287111-.2643243-.638019-.3964844-1.052735-.3964844-.487632 0-.895506.1367174-1.223632.4101562-.328127.2734389-.546875.6494117-.65625 1.1279297zm2.002929 4.5048829c-1.180344 0-2.111162-.3372363-2.79248-1.0117188-.681319-.6744825-1.021973-1.5563097-1.021973-2.6455078 0-.49219.082031-.9593077.246094-1.4013672s.395344-.8339827.693848-1.1757812c.298504-.3417986.676755-.6129548 1.134765-.8134766s.965004-.3007813 1.520996-.3007813c.555993 0 1.041339.0957022 1.456055.2871094s.742837.4591454.984375.8032227c.241538.3440772.42041.7303038.536621 1.1586914.116212.4283875.174317.9023411.174317 1.421875 0 .1321621-.011394.2324215-.03418.3007812h-4.921875c.027344.6835972.235838 1.1894515.625488 1.5175782.389651.3281266.908037.4921874 1.555176.4921874.756514 0 1.494788-.2506485 2.214844-.7519531l.458008 1.2304688c-.44206.30534-.887531.5297844-1.336426.6733398-.448896.1435554-.946775.2153321-1.493653.2153321zm-103.9814449 17.8427734v-5.8789063h-1.3056641v-1.1347656h1.3056641v-.2734375c0-.319012.0068358-.5833323.0205078-.7929687.0136719-.2096365.043294-.4249664.0888672-.6459961.0455731-.2210298.1105139-.3987624.1948242-.5332032.0843103-.1344407.1982415-.2643222.3417969-.3896484.1435554-.1253261.3201486-.2210283.5297851-.2871094.2096365-.066081.4614243-.1184894.7553711-.1572265.2939468-.0387372.6346009-.0581055 1.0219727-.0581055h.3623047l-.0615235 1.3193359c-.2597669 0-.4659823.0045573-.6186523.0136719-.1526701.0091146-.2939447.0353188-.4238282.0786133-.1298834.0432945-.2244463.0934242-.2836914.1503906s-.1093748.15039-.1503906.2802735c-.0410158.1298834-.0660807.2666008-.0751953.4101562s-.0136719.3406563-.0136719.5913086v.2939453h1.5791016v1.1347656h-1.5791016v5.8789063zm4.9287109 0v-5.2363281c0-.2734389-.0113931-.5582668-.0341797-.8544922-.0227866-.2962255-.0455728-.5240878-.0683594-.6835938l-.0341797-.2392578h1.8046876v.9228516c.2779961-.3645852.5548488-.6391593.8305664-.8237305.2757175-.1845712.5867495-.2768555.9331054-.2768555.2050792 0 .4374987.0341794.6972656.1025391v1.4833984c-.30534-.1002609-.5878893-.1503906-.8476562-.1503906-.4694034 0-.8522121.1526678-1.1484375.4580078-.2962254.3053401-.4443359.747393-.4443359 1.3261719v3.9716797zm8.6542969.1572266c-.6106802 0-1.1552711-.0991202-1.6337891-.2973633-.478518-.1982432-.8647446-.4671207-1.1586914-.8066407-.2939468-.3395199-.5172518-.7268858-.6699219-1.1621093-.15267-.4352236-.2290039-.901202-.2290039-1.3979493 0-.5058619.0774732-.9786761.2324219-1.418457.1549487-.4397808.3816717-.8294254.6801758-1.1689453s.68587-.6072581 1.1621094-.8032227c.4762393-.1959645 1.012855-.2939453 1.6098632-.2939453.6106802 0 1.1529925.0968415 1.6269532.2905274.4739607.1936858.8544907.4602847 1.1416015.7998047.2871108.3395199.5024407.7291644.6459961 1.1689453.1435554.4397808.2153321.919431.2153321 1.4389648 0 .4876327-.0751946.9467752-.225586 1.3774414s-.3702785.8168929-.659668 1.1586914c-.2893894.3417986-.6699195.6129548-1.1416015.8134766-.4716821.2005218-1.0037405.3007813-1.5961914.3007813zm-.0341797-1.3671876c.3326839 0 .6243477-.0626621.875-.1879882.2506523-.1253262.4477532-.2985015.5913086-.5195313.1435554-.2210297.2506507-.4659817.321289-.7348633.0706384-.2688815.1059571-.5605453.1059571-.875 0-.6699252-.1583643-1.2190733-.4750977-1.6474609-.3167333-.4283876-.787269-.6425781-1.4116211-.6425781-.4238302 0-.781574.1059559-1.0732422.3178711-.2916681.2119151-.5024407.4864892-.6323242.8237304-.1298834.3372413-.1948242.72005-.1948242 1.1484375 0 .4238303.0603835.8043603.1811523 1.1416016.1207689.3372413.3281236.6175119.6220704.8408203.2939467.2233084.6573871.3349609 1.090332.3349609zm5.4892578 1.209961v-4.7578125c0-.4830753-.0227862-.9798152-.0683594-1.4902344l-.0615234-.765625h1.7841797v.9160156c.1731779-.319012.4386375-.5810536.7963867-.7861328.3577492-.2050791.7462544-.3076172 1.1655273-.3076172.4511742 0 .8636049.1093739 1.2373047.328125s.6608063.5423156.8613282.9707032c.6015655-.8658898 1.3603469-1.2988282 2.2763671-1.2988282.8567752 0 1.5004862.2574844 1.9311524.772461.4306662.5149765.6459961 1.2213497.6459961 2.1191406v4.2998047h-1.6953125v-4.1972656c0-.1868499-.0159504-.3668612-.0478516-.5400391s-.0831702-.345214-.1538086-.5161133-.175455-.3076167-.3144531-.4101562c-.1389981-.1025396-.3041983-.1538086-.4956055-.1538086-.5013046 0-.9137353.1914043-1.2373047.5742187-.3235693.3828144-.4853515.8066383-.4853515 1.2714844v3.9716797h-1.6953125v-4.2861328c0-.1367195-.0079752-.2677403-.0239258-.3930664-.0159506-.1253262-.046712-.2597649-.0922852-.4033203-.0455731-.1435554-.1059566-.2677404-.1811523-.3725586-.0751957-.1048183-.1800124-.1914059-.3144531-.2597657-.1344408-.0683597-.2882479-.102539-.4614258-.102539-.478518 0-.8772771.1560857-1.1962891.4682617s-.4785156.6756164-.4785156 1.090332v4.2587891zm20.7470703.1572266c-.638024 0-1.1985653-.0774732-1.6816406-.2324219s-.8715806-.3588855-1.1655274-.6118164c-.2939467-.252931-.5320628-.567381-.7143554-.9433594s-.3076169-.7599264-.3759766-1.1518555c-.0683597-.391929-.1025391-.8294246-.1025391-1.3125v-5.8583984h1.7363282v5.9335937c0 .4101583.0387366.7724594.1162109 1.0869141.0774744.3144547.1834303.5719391.3178711.7724609.1344408.2005219.3007803.3645827.4990234.4921875.1982432.1276048.4078765.2164711.6289063.2666016.2210297.0501305.4659817.0751953.7348633.0751953.3463559 0 .6528307-.0432938.9194336-.1298828s.5069976-.2290029.7211914-.4272461.3782546-.4773745.4921875-.8374023c.1139328-.3600279.1708984-.7952449.1708984-1.3056641v-5.9267578h1.7363281v5.8652344c0 .478518-.0319007.9114564-.0957031 1.2988281s-.1857087.7701804-.3657226 1.1484375c-.180014.3782571-.4158514.6949857-.7075196.9501953-.2916681.2552096-.6801733.4602857-1.1655273.6152344s-1.0515918.2324219-1.6987305.2324219zm8.8046875 0c-.6152374 0-1.180336-.0865877-1.6953125-.2597657-.5149765-.1731779-.9251287-.3805326-1.2304687-.6220703l.4238281-1.2167969c.2871108.2233084.6494119.4067376 1.0869141.550293.4375021.1435554.8590474.215332 1.2646484.215332.3782571 0 .6642243-.0638014.8579101-.1914062.1936859-.1276048.2905274-.3349595.2905274-.6220703v-.1230469c0-.1458341-.0569656-.270019-.1708985-.3725586-.1139328-.1025396-.3759745-.2198887-.7861328-.3520508l-.9980468-.321289c-.2552096-.0820317-.4671216-.1583656-.6357422-.2290039-.1686207-.0706384-.3406567-.160644-.5161133-.2700196-.1754566-.1093755-.312174-.2290032-.4101563-.3588867-.0979822-.1298835-.177734-.2893871-.2392578-.4785156-.0615237-.1891286-.0922851-.4067371-.0922851-.6528321 0-.3554705.069498-.6676418.2084961-.9365234.1389981-.2688815.3315417-.4807935.5776367-.6357422s.5195297-.2700191.8203125-.3452148c.3007827-.0751957.6311831-.112793.9912109-.112793.4466168 0 .893227.0569656 1.3398438.1708984.4466168.1139329.83854.282551 1.1757812.5058594l-.4375 1.1621094c-.2734388-.1458341-.5935854-.2688797-.9604492-.3691406s-.6984035-.1503906-.9946289-.1503906c-.3873717 0-.6676424.047851-.8408203.1435546-.173178.0957036-.2597656.2529286-.2597656.4716797 0 .1458341.0273434.2597652.0820312.3417969s.1686189.1663407.3417969.2529297c.1731779.086589.4511699.1936842.8339844.3212891l.9091796.3076171c.3645852.1230475.6573883.2574863.878418.4033203.2210298.1458341.3987624.3531888.5332031.6220704.1344408.2688815.2016602.6061177.2016602 1.0117187 0 .3098974-.051269.590168-.1538086.8408203s-.2369783.4557284-.4033203.6152344-.3623036.2916661-.5878906.3964844c-.2255871.1048182-.4545887.1788735-.6870118.2221679-.232423.0432945-.4716784.0649415-.7177734.0649415zm5.6533203-4.5048829h3.4863281c-.0820316-.4967472-.2666001-.8772773-.5537109-1.1416015-.2871108-.2643243-.6380187-.3964844-1.0527344-.3964844-.4876326 0-.8955061.1367174-1.2236328.4101562-.3281266.2734389-.5468744.6494117-.65625 1.1279297zm2.0029297 4.5048829c-1.1803444 0-2.1111619-.3372363-2.7924805-1.0117188-.6813185-.6744825-1.0219726-1.5563097-1.0219726-2.6455078 0-.49219.0820304-.9593077.2460937-1.4013672.1640634-.4420595.3953436-.8339827.6938477-1.1757812.2985041-.3417986.6767555-.6129548 1.1347656-.8134766s.9650037-.3007813 1.5209961-.3007813 1.0413391.0957022 1.4560547.2871094.7428373.4591454.984375.8032227c.2415377.3440772.4204096.7303038.5366211 1.1586914.1162115.4283875.1743164.9023411.1743164 1.421875 0 .1321621-.0113931.2324215-.0341797.3007812h-4.921875c.0273439.6835972.2358379 1.1894515.6254883 1.5175782.3896504.3281266.9080371.4921874 1.5551758.4921874.7565142 0 1.494788-.2506485 2.2148437-.7519531l.4580078 1.2304688c-.4420595.30534-.8875303.5297844-1.3364257.6733398-.4488955.1435554-.9467747.2153321-1.4936524.2153321zm4.7988281-.1572266v-5.2363281c0-.2734389-.0113931-.5582668-.0341797-.8544922-.0227865-.2962255-.0455728-.5240878-.0683593-.6835938l-.0341797-.2392578h1.8046875v.9228516c.2779962-.3645852.5548489-.6391593.8305664-.8237305s.5867496-.2768555.9331055-.2768555c.2050791 0 .4374987.0341794.6972656.1025391v1.4833984c-.3053401-.1002609-.5878893-.1503906-.8476563-.1503906-.4694034 0-.852212.1526678-1.1484375.4580078-.2962254.3053401-.4443359.747393-.4443359 1.3261719v3.9716797zm12.5917971.1572266c-.683597 0-1.3421194-.1002595-1.9755861-.3007813s-1.1324852-.4785138-1.4970703-.8339844l.7382812-1.2441406c.3235693.2506523.7439753.4625642 1.2612305.6357422.5172552.1731779.9718407.2597656 1.3637697.2597656.615237 0 1.069823-.1139311 1.363769-.3417969.293947-.2278657.440918-.5742164.440918-1.0390625 0-.1822925-.013671-.3292637-.041015-.4409179s-.088867-.227864-.184571-.3486328c-.095703-.1207689-.238117-.2324214-.427246-.334961-.189128-.1025396-.443195-.2107742-.762207-.324707-.136719-.0455732-.367999-.1207677-.693847-.225586-.325848-.1048182-.5639645-.18457-.7143559-.2392578-.8203166-.3098973-1.4150372-.6756163-1.7841797-1.0971679-.3691424-.4215516-.5537109-.9923467-.5537109-1.7124024 0-.5833362.1538071-1.0823547.4614258-1.4970703s.7166315-.7200511 1.2270508-.9160156c.5104192-.1959645 1.0937469-.2939453 1.7499999-.2939453.888676 0 1.579099.0865877 2.071289.2597656s.957029.4693989 1.394531.8886719l-.888671 1.1484375c-.56055-.5332058-1.337561-.7998047-2.331055-.7998047-.542321 0-.983234.0934235-1.3227541.2802734-.3395199.1868499-.5092773.4716778-.5092773.8544922 0 .1868499.0159503.340657.0478515.4614258s.0991206.2392572.2016602.3554687c.1025396.1162116.2495107.2233068.4409177.3212891s.446613.2039382.765625.3178711c.113933.0410158.352049.1196283.714356.2358398.362306.1162116.632323.2084958.810058.2768555.811202.3235693 1.376301.6949849 1.695313 1.1142578.319012.419273.478515 1.0026005.478515 1.75 0 .4967473-.09798.9331036-.293945 1.3090821-.195964.3759784-.462563.6710601-.799805.8852539-.337241.2141937-.710935.3736974-1.121093.4785156-.410159.1048182-.852211.1572266-1.326172.1572266zm9.37207-.1640626h-.683594c-.273438 0-.510415-.0068358-.710937-.0205078-.200522-.0136719-.406737-.043294-.618652-.0888672-.211916-.0455731-.391927-.1059566-.54004-.1811523-.148112-.0751957-.290526-.1765944-.427246-.3041992-.136719-.1276048-.246093-.2814119-.328125-.4614258-.082031-.1800139-.146972-.3953438-.194824-.6459961s-.071777-.5377588-.071777-.8613281v-3.3085938h-1.462891v-1.1347656h1.53125v-1.640625l1.620117-.4990234v2.1396484h1.832032v1.1347656h-1.832032v3.4111329c0 .218751.01709.3953443.05127.5297851s.085449.2460933.153808.3349609c.06836.0888677.183431.1538084.345215.1948243.161785.0410158.338378.0683593.529785.0820312.191408.013672.460285.0205078.806641.0205078zm4.880859.1640626c-.61068 0-1.155271-.0991202-1.633789-.2973633-.478518-.1982432-.864744-.4671207-1.158691-.8066407-.293947-.3395199-.517252-.7268858-.669922-1.1621093-.15267-.4352236-.229004-.901202-.229004-1.3979493 0-.5058619.077473-.9786761.232422-1.418457.154949-.4397808.381672-.8294254.680176-1.1689453s.68587-.6072581 1.162109-.8032227c.47624-.1959645 1.012855-.2939453 1.609864-.2939453.61068 0 1.152992.0968415 1.626953.2905274.47396.1936858.85449.4602847 1.141601.7998047.287111.3395199.502441.7291644.645996 1.1689453.143556.4397808.215332.919431.215332 1.4389648 0 .4876327-.075194.9467752-.225586 1.3774414-.150391.4306662-.370278.8168929-.659668 1.1586914-.289389.3417986-.669919.6129548-1.141601.8134766s-1.003741.3007813-1.596192.3007813zm-.034179-1.3671876c.332684 0 .624348-.0626621.875-.1879882.250652-.1253262.447753-.2985015.591308-.5195313.143556-.2210297.250651-.4659817.321289-.7348633.070639-.2688815.105958-.5605453.105958-.875 0-.6699252-.158365-1.2190733-.475098-1.6474609-.316734-.4283876-.787269-.6425781-1.411621-.6425781-.42383 0-.781574.1059559-1.073242.3178711-.291669.2119151-.502441.4864892-.632325.8237304-.129883.3372413-.194824.72005-.194824 1.1484375 0 .4238303.060384.8043603.181152 1.1416016.120769.3372413.328124.6175119.622071.8408203s.657387.3349609 1.090332.3349609zm5.502929 1.209961v-5.2363281c0-.2734389-.011393-.5582668-.034179-.8544922-.022787-.2962255-.045573-.5240878-.06836-.6835938l-.034179-.2392578h1.804687v.9228516c.277996-.3645852.554849-.6391593.830567-.8237305.275717-.1845712.586749-.2768555.933105-.2768555.205079 0 .437499.0341794.697266.1025391v1.4833984c-.30534-.1002609-.58789-.1503906-.847657-.1503906-.469403 0-.852212.1526678-1.148437.4580078-.296225.3053401-.444336.747393-.444336 1.3261719v3.9716797zm5.195313-8.4628906v-1.4902344h1.640625v1.4902344zm.006836 8.4628906v-7.0136719h1.633789v7.0136719zm5.154297-4.3476563h3.486328c-.082032-.4967472-.2666-.8772773-.553711-1.1416015-.287111-.2643243-.638019-.3964844-1.052734-.3964844-.487633 0-.895507.1367174-1.223633.4101562-.328127.2734389-.546875.6494117-.65625 1.1279297zm2.00293 4.5048829c-1.180345 0-2.111162-.3372363-2.792481-1.0117188-.681318-.6744825-1.021973-1.5563097-1.021973-2.6455078 0-.49219.082031-.9593077.246094-1.4013672s.395344-.8339827.693848-1.1757812c.298504-.3417986.676755-.6129548 1.134765-.8134766.458011-.2005218.965004-.3007813 1.520997-.3007813.555992 0 1.041339.0957022 1.456054.2871094.414716.1914072.742838.4591454.984375.8032227.241538.3440772.42041.7303038.536621 1.1586914.116212.4283875.174317.9023411.174317 1.421875 0 .1321621-.011393.2324215-.03418.3007812h-4.921875c.027344.6835972.235838 1.1894515.625488 1.5175782.389651.3281266.908037.4921874 1.555176.4921874.756514 0 1.494788-.2506485 2.214844-.7519531l.458008 1.2304688c-.44206.30534-.887531.5297844-1.336426.6733398-.448896.1435554-.946775.2153321-1.493652.2153321zm7.341796 0c-.615237 0-1.180336-.0865877-1.695312-.2597657-.514977-.1731779-.925129-.3805326-1.230469-.6220703l.423828-1.2167969c.287111.2233084.649412.4067376 1.086914.550293.437503.1435554.859048.215332 1.264649.215332.378257 0 .664224-.0638014.85791-.1914062s.290527-.3349595.290527-.6220703v-.1230469c0-.1458341-.056965-.270019-.170898-.3725586s-.375975-.2198887-.786133-.3520508l-.998047-.321289c-.255209-.0820317-.467121-.1583656-.635742-.2290039-.168621-.0706384-.340657-.160644-.516113-.2700196-.175457-.1093755-.312174-.2290032-.410157-.3588867-.097982-.1298835-.177734-.2893871-.239257-.4785156-.061524-.1891286-.092286-.4067371-.092286-.6528321 0-.3554705.069498-.6676418.208497-.9365234.138998-.2688815.331541-.4807935.577636-.6357422s.51953-.2700191.820313-.3452148.631183-.112793.991211-.112793c.446617 0 .893227.0569656 1.339843.1708984.446617.1139329.83854.282551 1.175782.5058594l-.4375 1.1621094c-.273439-.1458341-.593586-.2688797-.96045-.3691406-.366863-.1002609-.698403-.1503906-.994628-.1503906-.387372 0-.667643.047851-.840821.1435546s-.259765.2529286-.259765.4716797c0 .1458341.027343.2597652.082031.3417969s.168619.1663407.341797.2529297.45117.1936842.833984.3212891l.90918.3076171c.364585.1230475.657388.2574863.878418.4033203.22103.1458341.398762.3531888.533203.6220704.134441.2688815.20166.6061177.20166 1.0117187 0 .3098974-.051269.590168-.153809.8408203-.102539.2506523-.236978.4557284-.40332.6152344s-.362303.2916661-.58789.3964844c-.225588.1048182-.454589.1788735-.687012.2221679-.232423.0432945-.471679.0649415-.717774.0649415z" fill="#1106ff"/><rect fill-rule="nonzero" height="57" rx="28.5" stroke="#1106ff" stroke-width="3" width="137" x="802.5" y="13.5"/><path d="m835.71582 33.2792969h1.661133c1.23959 0 1.859375-.4807895 1.859375-1.4423828 0-.5240912-.129881-.8784171-.389648-1.0629883-.259767-.1845713-.688148-.2768555-1.285157-.2768555h-1.845703zm-1.71582 5.680664v-9.953125h3.588867c.546878 0 1.019692.0410153 1.418457.1230469.398765.0820317.759927.222167 1.083496.4204102.32357.1982431.567382.4807924.731446.8476562.164063.3668638.246093.8191705.246093 1.3569336 0 .5605497-.166339 1.0561502-.499023 1.4868164s-.833981.7211907-1.503906.871582c.597008.332684 1.036782.8522101 1.319336 1.5585938l1.346679 3.2880859h-1.879883l-1.141601-2.9599609c-.18685-.4876326-.389647-.818033-.608399-.9912109-.218751-.173178-.549151-.2597657-.99121-.2597657h-1.374024v4.2109375zm10.739258-4.3476562h3.486328c-.082032-.4967473-.2666-.8772773-.553711-1.1416016-.287111-.2643242-.638019-.3964843-1.052734-.3964843-.487633 0-.895507.1367173-1.223633.4101562-.328127.2734389-.546875.6494117-.65625 1.1279297zm2.00293 4.5048828c-1.180345 0-2.111162-.3372362-2.792481-1.0117187-.681318-.6744826-1.021973-1.5563097-1.021973-2.6455079 0-.4921899.082031-.9593076.246094-1.4013671.164063-.4420596.395344-.8339827.693848-1.1757813s.676755-.6129547 1.134765-.8134766c.458011-.2005218.965004-.3007812 1.520997-.3007812.555992 0 1.041339.0957022 1.456054.2871094.414716.1914072.742838.4591454.984375.8032226.241538.3440773.42041.7303039.536621 1.1586914.116212.4283876.174317.9023412.174317 1.421875 0 .1321621-.011393.2324216-.03418.3007813h-4.921875c.027344.6835971.235838 1.1894515.625488 1.5175781.389651.3281266.908037.4921875 1.555176.4921875.756514 0 1.494788-.2506485 2.214844-.7519531l.458008 1.2304687c-.44206.3053401-.887531.5297845-1.336426.6733399-.448896.1435554-.946775.215332-1.493652.215332zm6.760742-.1572266-2.953125-7.0136718h1.886718c1.212246 3.2584798 1.847982 4.9651685 1.907227 5.1201171.360028-.9798226.972977-2.6865112 1.838867-5.1201171h1.838867l-2.980468 7.0136718zm5.598632-8.4628906v-1.4902344h1.640626v1.4902344zm.006836 8.4628906v-7.0136718h1.63379v7.0136718zm5.154297-4.3476562h3.486328c-.082031-.4967473-.2666-.8772773-.553711-1.1416016-.28711-.2643242-.638018-.3964843-1.052734-.3964843-.487633 0-.895506.1367173-1.223633.4101562-.328126.2734389-.546874.6494117-.65625 1.1279297zm2.00293 4.5048828c-1.180344 0-2.111162-.3372362-2.79248-1.0117187-.681319-.6744826-1.021973-1.5563097-1.021973-2.6455079 0-.4921899.08203-.9593076.246094-1.4013671.164063-.4420596.395343-.8339827.693847-1.1757813s.676756-.6129547 1.134766-.8134766c.45801-.2005218.965004-.3007812 1.520996-.3007812s1.041339.0957022 1.456055.2871094c.414715.1914072.742837.4591454.984375.8032226.241537.3440773.420409.7303039.536621 1.1586914.116211.4283876.174316.9023412.174316 1.421875 0 .1321621-.011393.2324216-.03418.3007813h-4.921874c.027343.6835971.235837 1.1894515.625488 1.5175781.38965.3281266.908037.4921875 1.555176.4921875.756514 0 1.494788-.2506485 2.214843-.7519531l.458008 1.2304687c-.442059.3053401-.88753.5297845-1.336426.6733399-.448895.1435554-.946774.215332-1.493652.215332zm6.330078-.1572266-2.542969-7.0136718h1.804688c.710941 2.1875109 1.244139 3.8303981 1.599609 4.9287109.182293-.551435.73372-2.1943223 1.654297-4.9287109h1.476563c.11849.3645851.28369.8829719.495605 1.5551757.211915.6722039.405598 1.2828749.581055 1.8320313.175456.5491564.342935 1.0675431.502441 1.5551758.132162-.4147156.676753-2.0621601 1.633789-4.9423828h1.579102l-2.65918 7.0136718h-1.415039c-.961593-2.8756654-1.492512-4.4661443-1.592773-4.7714843-.177736.5058619-.742834 2.0963408-1.695313 4.7714843zm17.390625-1.2099609c.656253 0 1.133625-.208494 1.432129-.6254883s.447754-.9741176.447754-1.6713867c0-.7154984-.158364-1.2794576-.475098-1.6918945-.316733-.412437-.796383-.6186524-1.438965-.6186524-.628909 0-1.110838.2073547-1.4458.6220703-.334963.4147157-.502442.9729783-.502442 1.6748047 0 .7018265.167479 1.2623677.502442 1.6816407.334962.4192729.828284.6289062 1.47998.6289062zm-.211914 1.3671875c-.569664 0-1.080076-.102538-1.53125-.3076172-.451174-.2050791-.813475-.4785139-1.086914-.8203125s-.480794-.7223286-.62207-1.1416016c-.141277-.4192729-.211914-.8590471-.211914-1.3193359 0-.4876326.072916-.9513324.21875-1.3911133.145834-.4397808.358885-.8385398.63916-1.196289s.650551-.6425771 1.11084-.8544922c.460288-.2119151.982093-.3178711 1.565429-.3178711.847661 0 1.499347.3076141 1.955078.9228515v-.7451171h1.661133v7.0136718h-1.702148v-.9570312c-.510419.7428422-1.175777 1.1142578-1.996094 1.1142578zm5.714844-.1572266v-4.3408203c0-.4967473-.011393-.9672829-.03418-1.4116211-.022786-.4443381-.045573-.7644847-.068359-.9604492l-.03418-.3007812h1.797852v.9365234c.241537-.3645852.563962-.6414379.967285-.8305664.403322-.1891286.794106-.2836914 1.172363-.2836914.405601 0 .761066.0535476 1.066406.1606445s.575357.2802723.810059.5195313.413574.56852.536621.9877929c.123047.419273.18457.9274059.18457 1.5244141v3.9990234h-1.695312v-4.1152343c0-.6197948-.096842-1.0584297-.290528-1.315918-.193685-.2574883-.513832-.3862305-.960449-.3862305-.164063 0-.344074.036458-.540039.109375-.195964.0729171-.386229.1743158-.570801.3041992-.184571.1298835-.338378.3007802-.461425.5126954-.123048.2119151-.184571.4431953-.184571.6938476v4.1972656zm11.573242-1.2099609c.309897 0 .581054-.0626621.813477-.1879883.232423-.1253261.415852-.2985015.550293-.5195312.13444-.2210298.2347-.4637031.300781-.7280274.066081-.2643242.099121-.5491521.099121-.8544922 0-.6835971-.148111-1.2407205-.444336-1.6713867-.296226-.4306662-.740557-.6459961-1.333008-.6459961-.396486 0-.730305.1070953-1.001465.3212891s-.464843.4876285-.581054.8203125c-.116212.3326839-.174317.7154926-.174317 1.1484375 0 .3144547.03304.6061184.099121.875.066081.2688815.166341.5138335.300782.7348633.13444.2210297.319009.3942051.55371.5195312.234702.1253262.506998.1879883.816895.1879883zm-.348633 1.3671875c-.906905 0-1.666826-.332679-2.279785-.9980469s-.919434-1.5426378-.919434-2.6318359c0-.4967473.070638-.9661436.211914-1.4082031.141277-.4420595.345214-.8362613.611817-1.1826172s.616371-.62093 1.049316-.8237305.918292-.3041992 1.456055-.3041992c.483075 0 .892088.0991201 1.227051.2973633.334962.1982431.568521.4044585.700683.6186523v-3.6845703h1.681641v8.0869141c0 .0273438.020508.6516866.061523 1.8730468h-1.736328l-.013672-.8955078c-.041015.1048183-.109374.2119135-.205078.3212891-.095703.1093755-.223306.2221674-.382812.3383789s-.366861.2107744-.62207.2836914c-.25521.072917-.535481.109375-.840821.109375zm-55.979492 17.8427734v-8.4628906h-3.069336v-1.4902344h7.922852v1.4902344h-3.117188v8.4628906zm7.478516-4.3476562h3.486328c-.082032-.4967473-.2666-.8772773-.553711-1.1416016-.287111-.2643242-.638019-.3964843-1.052735-.3964843-.487632 0-.895506.1367173-1.223632.4101562-.328127.2734389-.546875.6494117-.65625 1.1279297zm2.002929 4.5048828c-1.180344 0-2.111162-.3372362-2.79248-1.0117187-.681319-.6744826-1.021973-1.5563097-1.021973-2.6455079 0-.4921899.082031-.9593076.246094-1.4013671.164063-.4420596.395343-.8339827.693848-1.1757813.298504-.3417986.676755-.6129547 1.134765-.8134766.45801-.2005218.965004-.3007812 1.520996-.3007812.555993 0 1.041339.0957022 1.456055.2871094s.742837.4591454.984375.8032226c.241538.3440773.42041.7303039.536621 1.1586914.116212.4283876.174317.9023412.174317 1.421875 0 .1321621-.011394.2324216-.03418.3007813h-4.921875c.027344.6835971.235838 1.1894515.625488 1.5175781s.908037.4921875 1.555176.4921875c.756514 0 1.494788-.2506485 2.214844-.7519531l.458007 1.2304687c-.442059.3053401-.88753.5297845-1.336425.6733399-.448896.1435554-.946775.215332-1.493653.215332zm7.341797 0c-.615237 0-1.180336-.0865877-1.695312-.2597656-.514977-.173178-.925129-.3805327-1.230469-.6220703l.423828-1.2167969c.287111.2233084.649412.4067376 1.086914.550293s.859048.215332 1.264649.215332c.378257 0 .664224-.0638015.85791-.1914063s.290527-.3349595.290527-.6220703v-.1230469c0-.145834-.056966-.270019-.170898-.3725585-.113933-.1025396-.375975-.2198887-.786133-.3520508l-.998047-.3212891c-.25521-.0820316-.467122-.1583655-.635742-.2290039-.168621-.0706384-.340657-.160644-.516114-.2700195-.175456-.1093756-.312174-.2290033-.410156-.3588867-.097982-.1298835-.177734-.2893871-.239258-.4785157-.061523-.1891285-.092285-.406737-.092285-.652832 0-.3554705.069498-.6676419.208496-.9365234.138998-.2688816.331542-.4807935.577637-.6357422s.51953-.2700192.820313-.3452149c.300782-.0751957.631183-.1127929.991211-.1127929.446616 0 .893226.0569655 1.339843.1708984s.83854.282551 1.175781.5058594l-.4375 1.1621094c-.273438-.1458341-.593585-.2688798-.960449-.3691407s-.698403-.1503906-.994629-.1503906c-.387371 0-.667642.0478511-.84082.1435547s-.259766.2529286-.259766.4716797c0 .145834.027344.2597652.082032.3417969.054687.0820316.168619.1663407.341797.2529296.173178.086589.45117.1936843.833984.3212891l.90918.3076172c.364585.1230475.657388.2574862.878418.4033203.221029.1458341.398762.3531888.533203.6220703.13444.2688816.20166.6061178.20166 1.0117188 0 .3098973-.051269.590168-.153809.8408203-.102539.2506523-.236978.4557283-.40332.6152344-.166342.159506-.362304.2916661-.587891.3964843-.225587.1048183-.454588.1788735-.687011.222168s-.471679.0649414-.717774.0649414zm8.148438-.1640625h-.683594c-.273439 0-.510416-.0068359-.710938-.0205078-.200521-.013672-.406737-.0432941-.618652-.0888672s-.391926-.1059567-.540039-.1811523c-.148113-.0751957-.290527-.1765945-.427246-.3041993s-.246093-.2814118-.328125-.4614257c-.082032-.180014-.146972-.3953438-.194824-.6459961s-.071778-.5377588-.071778-.8613282v-3.3085937h-1.46289v-1.1347656h1.53125v-1.640625l1.620117-.4990235v2.1396485h1.832031v1.1347656h-1.832031v3.4111328c0 .2187511.01709.3953444.051269.5297852.03418.1344407.085449.2460933.153809.3349609s.18343.1538084.345215.1948242.338378.0683593.529785.0820313c.191407.0136719.460285.0205078.806641.0205078zm1.421875-8.4560547v-1.4902344h1.640625v1.4902344zm.006836 8.4628906v-7.0136718h1.633789v7.0136718zm3.68457 0v-4.3408203c0-.4967473-.011393-.9672829-.03418-1.4116211-.022786-.4443381-.045573-.7644847-.068359-.9604492l-.03418-.3007812h1.797852v.9365234c.241537-.3645852.563963-.6414379.967285-.8305664.403322-.1891286.794106-.2836914 1.172363-.2836914.405601 0 .761066.0535476 1.066406.1606445.305341.1070969.575357.2802723.810059.5195313s.413574.56852.536621.9877929c.123048.419273.18457.9274059.18457 1.5244141v3.9990234h-1.695312v-4.1152343c0-.6197948-.096842-1.0584297-.290527-1.315918-.193686-.2574883-.513833-.3862305-.96045-.3862305-.164063 0-.344074.036458-.540039.109375-.195964.0729171-.386229.1743158-.5708.3041992-.184572.1298835-.338379.3007802-.461426.5126954-.123048.2119151-.184571.4431953-.184571.6938476v4.1972656zm11.566406-1.2783203c.268882 0 .505859-.0444331.710938-.1333008.205079-.0888676.371418-.2050774.499023-.3486328s.231282-.3155914.311035-.5161132c.079753-.2005219.13444-.40218.164063-.6049805.029622-.2028005.044433-.4181304.044433-.6459961 0-.6835972-.142414-1.2361633-.427246-1.6577149-.284832-.4215515-.712074-.6323242-1.281738-.6323242-.391929 0-.725747.1105132-1.001465.331543-.275717.2210297-.475097.5001611-.598144.8374023-.123048.3372413-.184571.7132141-.184571 1.1279297 0 .7018265.143554 1.2509746.430664 1.647461.287111.3964863.731443.5947265 1.333008.5947265zm-.328125 4.1357422c-.911463 0-1.800126-.1595036-2.666015-.4785156l.293945-1.4628906c.683597.3554705 1.433264.5332031 2.249023.5332031.656254 0 1.168944-.1401353 1.538086-.4204102.369143-.2802748.553711-.7029594.553711-1.2680664v-.5947265c-.401043.5559923-.98665.8339843-1.756836.8339843-1.03451 0-1.863929-.3178679-2.488281-.9536132-.624352-.6357454-.936523-1.4913684-.936523-2.5668946 0-.4921899.06608-.9536111.198242-1.3842773s.328123-.8191715.58789-1.1655274.604979-.6197906 1.035645-.8203125c.430666-.2005218.921709-.3007812 1.473144-.3007812.432945 0 .812336.0865877 1.138184.2597656.325848.173178.577636.396483.755371.6699219v-.7519531h1.797852c-.091147.6927118-.136719 1.4765581-.136719 2.3515625v3.6572265c0 2.5748827-1.212228 3.8623047-3.636719 3.8623047z" fill="#1106ff"/><rect fill-rule="nonzero" height="57" rx="28.5" stroke="#1106ff" stroke-width="3" width="107" x="192.5" y="13.5"/><path d="m218.71582 42.2792969h1.661133c1.23959 0 1.859375-.4807895 1.859375-1.4423828 0-.5240912-.129881-.8784171-.389648-1.0629883-.259767-.1845713-.688148-.2768555-1.285157-.2768555h-1.845703zm-1.71582 5.680664v-9.953125h3.588867c.546878 0 1.019692.0410153 1.418457.1230469.398765.0820317.759927.222167 1.083496.4204102.32357.1982431.567382.4807924.731446.8476562.164063.3668638.246093.8191705.246093 1.3569336 0 .5605497-.166339 1.0561502-.499023 1.4868164s-.833981.7211907-1.503906.871582c.597008.332684 1.036782.8522101 1.319336 1.5585938l1.346679 3.2880859h-1.879883l-1.141601-2.9599609c-.18685-.4876326-.389647-.818033-.608399-.9912109-.218751-.173178-.549151-.2597657-.99121-.2597657h-1.374024v4.2109375zm10.739258-4.3476562h3.486328c-.082032-.4967473-.2666-.8772773-.553711-1.1416016-.287111-.2643242-.638019-.3964843-1.052734-.3964843-.487633 0-.895507.1367173-1.223633.4101562-.328127.2734389-.546875.6494117-.65625 1.1279297zm2.00293 4.5048828c-1.180345 0-2.111162-.3372362-2.792481-1.0117187-.681318-.6744826-1.021973-1.5563097-1.021973-2.6455079 0-.4921899.082031-.9593076.246094-1.4013671.164063-.4420596.395344-.8339827.693848-1.1757813s.676755-.6129547 1.134765-.8134766c.458011-.2005218.965004-.3007812 1.520997-.3007812.555992 0 1.041339.0957022 1.456054.2871094.414716.1914072.742838.4591454.984375.8032226.241538.3440773.42041.7303039.536621 1.1586914.116212.4283876.174317.9023412.174317 1.421875 0 .1321621-.011393.2324216-.03418.3007813h-4.921875c.027344.6835971.235838 1.1894515.625488 1.5175781.389651.3281266.908037.4921875 1.555176.4921875.756514 0 1.494788-.2506485 2.214844-.7519531l.458008 1.2304687c-.44206.3053401-.887531.5297845-1.336426.6733399-.448896.1435554-.946775.215332-1.493652.215332zm7.341796 0c-.615237 0-1.180336-.0865877-1.695312-.2597656-.514977-.173178-.925129-.3805327-1.230469-.6220703l.423828-1.2167969c.287111.2233084.649412.4067376 1.086914.550293.437503.1435554.859048.215332 1.264649.215332.378257 0 .664224-.0638015.85791-.1914063s.290527-.3349595.290527-.6220703v-.1230469c0-.145834-.056965-.270019-.170898-.3725585-.113933-.1025396-.375975-.2198887-.786133-.3520508l-.998047-.3212891c-.255209-.0820316-.467121-.1583655-.635742-.2290039s-.340657-.160644-.516113-.2700195c-.175457-.1093756-.312174-.2290033-.410157-.3588867-.097982-.1298835-.177734-.2893871-.239257-.4785157-.061524-.1891285-.092286-.406737-.092286-.652832 0-.3554705.069498-.6676419.208497-.9365234.138998-.2688816.331541-.4807935.577636-.6357422s.51953-.2700192.820313-.3452149.631183-.1127929.991211-.1127929c.446617 0 .893227.0569655 1.339843.1708984.446617.1139329.83854.282551 1.175782.5058594l-.4375 1.1621094c-.273439-.1458341-.593586-.2688798-.96045-.3691407-.366863-.1002609-.698403-.1503906-.994628-.1503906-.387372 0-.667643.0478511-.840821.1435547s-.259765.2529286-.259765.4716797c0 .145834.027343.2597652.082031.3417969.054688.0820316.168619.1663407.341797.2529296.173178.086589.45117.1936843.833984.3212891l.90918.3076172c.364585.1230475.657388.2574862.878418.4033203s.398762.3531888.533203.6220703c.134441.2688816.20166.6061178.20166 1.0117188 0 .3098973-.051269.590168-.153809.8408203-.102539.2506523-.236978.4557283-.40332.6152344-.166342.159506-.362303.2916661-.58789.3964843-.225588.1048183-.454589.1788735-.687012.222168s-.471679.0649414-.717774.0649414zm5.653321-4.5048828h3.486328c-.082032-.4967473-.2666-.8772773-.553711-1.1416016-.287111-.2643242-.638019-.3964843-1.052734-.3964843-.487633 0-.895507.1367173-1.223633.4101562-.328127.2734389-.546875.6494117-.65625 1.1279297zm2.002929 4.5048828c-1.180344 0-2.111162-.3372362-2.79248-1.0117187-.681319-.6744826-1.021973-1.5563097-1.021973-2.6455079 0-.4921899.082031-.9593076.246094-1.4013671.164063-.4420596.395344-.8339827.693848-1.1757813s.676755-.6129547 1.134765-.8134766c.45801-.2005218.965004-.3007812 1.520996-.3007812.555993 0 1.041339.0957022 1.456055.2871094s.742837.4591454.984375.8032226c.241538.3440773.42041.7303039.536621 1.1586914.116212.4283876.174317.9023412.174317 1.421875 0 .1321621-.011394.2324216-.03418.3007813h-4.921875c.027344.6835971.235838 1.1894515.625488 1.5175781.389651.3281266.908037.4921875 1.555176.4921875.756514 0 1.494788-.2506485 2.214844-.7519531l.458007 1.2304687c-.442059.3053401-.88753.5297845-1.336425.6733399-.448896.1435554-.946775.215332-1.493653.215332zm8.09375-1.3671875c.656254 0 1.133625-.208494 1.432129-.6254883s.447754-.9741176.447754-1.6713867c0-.7154984-.158364-1.2794576-.475097-1.6918945-.316734-.412437-.796384-.6186524-1.438965-.6186524-.62891 0-1.110838.2073547-1.445801.6220703-.334963.4147157-.502442.9729783-.502442 1.6748047 0 .7018265.167479 1.2623677.502442 1.6816407.334963.4192729.828284.6289062 1.47998.6289062zm-.211914 1.3671875c-.569664 0-1.080076-.102538-1.53125-.3076172-.451174-.2050791-.813475-.4785139-1.086914-.8203125s-.480793-.7223286-.62207-1.1416016c-.141277-.4192729-.211914-.8590471-.211914-1.3193359 0-.4876326.072916-.9513324.21875-1.3911133.145834-.4397808.358885-.8385398.63916-1.196289s.650551-.6425771 1.11084-.8544922.982093-.3178711 1.56543-.3178711c.84766 0 1.499346.3076141 1.955078.9228515v-.7451171h1.661132v7.0136718h-1.702148v-.9570312c-.510419.7428422-1.175777 1.1142578-1.996094 1.1142578zm5.742188-.1572266v-5.2363281c0-.2734389-.011393-.5582667-.03418-.8544922-.022786-.2962254-.045573-.5240877-.068359-.6835937l-.03418-.2392578h1.804688v.9228515c.277996-.3645851.554848-.6391592.830566-.8237304.275717-.1845713.58675-.2768555.933105-.2768555.20508 0 .437499.0341793.697266.1025391v1.4833984c-.30534-.1002609-.587889-.1503906-.847656-.1503906-.469404 0-.852212.1526677-1.148438.4580078-.296225.30534-.444336.7473929-.444336 1.3261718v3.9716797zm8.626953.1572266c-.569664 0-1.09033-.1002594-1.562012-.3007813-.471682-.2005218-.857908-.4716779-1.158691-.8134765s-.533202-.7325824-.697266-1.1723633c-.164063-.4397808-.246094-.901202-.246094-1.3842773 0-.6927118.142414-1.3159152.427247-1.8696289.284832-.5537137.706377-.993488 1.264648-1.319336s1.208818-.4887695 1.95166-.4887695c1.10287 0 1.950518.31445 2.542969.9433594l-.608399 1.09375c-.505861-.4466169-1.091468-.6699219-1.756835-.6699219-.665368 0-1.17578.2096333-1.53125.6289062-.355471.419273-.533204.9820929-.533204 1.6884766 0 .6881545.189126 1.2429992.567383 1.6645508s.895505.6323242 1.551758.6323242c.091146 0 .182291-.0045572.273437-.0136719.091147-.0091146.173177-.0205077.246094-.0341797.072917-.0136719.149251-.0330402.229004-.0581054.079753-.0250653.146973-.0478515.20166-.0683594.054688-.0205079.116211-.0489907.184571-.0854492.068359-.0364585.121907-.0649413.160644-.0854492.038737-.020508.087728-.0512694.146973-.0922852s.099121-.0683593.119629-.0820312c.020508-.013672.056966-.0398762.109375-.0786133.052409-.0387372.080892-.0603841.085449-.0649414l.512695 1.2441406c-.391929.2734389-.783852.4728184-1.175781.5981445-.391929.1253262-.827146.1879883-1.305664.1879883zm3.90332-.1572266v-9.9599609h1.695313v3.8554688c.16862-.3235694.464841-.585611.888672-.7861329.42383-.2005218.827146-.3007812 1.209961-.3007812.323569 0 .618651.0387366.885253.1162109.266603.0774744.491048.1800124.67334.3076172.182293.1276048.341797.2836905.478516.4682617.136719.1845713.243815.3714184.321289.5605469.077474.1891286.140136.3976226.187988.6254883s.079753.4352204.095703.6220703c.015951.1868499.023926.3828115.023926.5878906v3.9033203h-1.695312v-3.9580078c0-.6608106-.102538-1.1359035-.307618-1.4252929-.205079-.2893895-.512693-.4340821-.922851-.4340821-.464846 0-.887531.1606429-1.268066.4819336-.380536.3212907-.570801.6915669-.570801 1.1108399v4.2246093z" fill="#1106ff"/><rect fill-rule="nonzero" height="57" rx="28.5" stroke="#1106ff" stroke-width="3" width="137" x="642.5" y="13.5"/><path d="m660 47.9599609v-9.953125h1.736328v9.953125zm4.005859 0v-4.7578125c0-.4830753-.022786-.9798151-.068359-1.4902343l-.061523-.765625h1.784179v.9160156c.173178-.319012.438638-.5810537.796387-.7861328.357749-.2050792.746254-.3076172 1.165527-.3076172.451174 0 .863605.1093739 1.237305.328125s.660806.5423156.861328.9707031c.601566-.8658897 1.360347-1.2988281 2.276367-1.2988281.856775 0 1.500486.2574844 1.931153.7724609.430666.5149766.645996 1.2213497.645996 2.1191406v4.2998047h-1.695313v-4.1972656c0-.1868499-.01595-.3668611-.047851-.5400391-.031902-.1731779-.083171-.3452139-.153809-.5161132s-.175455-.3076167-.314453-.4101563-.304198-.1538086-.495605-.1538086c-.501305 0-.913736.1914044-1.237305.5742188-.32357.3828144-.485352.8066383-.485352 1.2714843v3.9716797h-1.695312v-4.2861328c0-.1367194-.007975-.2677402-.023926-.3930664-.015951-.1253261-.046712-.2597649-.092285-.4033203s-.105957-.2677404-.181153-.3725586c-.075195-.1048182-.180012-.1914059-.314453-.2597656-.13444-.0683597-.288247-.1025391-.461425-.1025391-.478518 0-.877277.1560857-1.196289.4682617-.319013.3121761-.478516.6756165-.478516 1.0903321v4.258789zm15.920899-1.2099609c.314455 0 .589029-.0626621.82373-.1879883.234702-.1253261.41927-.2973622.553711-.5161133s.2347-.4614244.300781-.7280273c.066082-.2666029.099122-.5571273.099122-.871582 0-.4329449-.059245-.8180322-.177735-1.1552735-.11849-.3372412-.315591-.6129546-.591308-.8271484-.275718-.2141938-.614093-.3212891-1.015137-.3212891-.396486 0-.731444.105956-1.004883.3178711s-.4694.4830713-.587891.8134766c-.11849.3304053-.177734.709796-.177734 1.1381836 0 .319012.03304.6140937.099121.8852539s.16748.5172515.304199.7382812c.13672.2210298.322428.3953444.557129.5229493.234702.1276048.506997.1914062.816895.1914062zm-3.34961 3.9101562v-7.3554687c0-.405601-.043293-1.1917259-.129882-2.3583984h1.797851v1.0048828c.054688-.2552096.28369-.516112.687012-.7827149s.896644-.3999023 1.47998-.3999023c.615238 0 1.158689.1697574 1.630371.5092773.471683.33952.827148.7804335 1.066407 1.3227539.239259.5423205.358886 1.1324838.358886 1.7705079 0 .478518-.070637.9399391-.211914 1.3842773-.141276.4443382-.341795.8430972-.601562 1.1962891-.259767.3531918-.592446.6357411-.998047.8476562s-.852211.3178711-1.339844.3178711c-.551435 0-1.020831-.1298815-1.408203-.3896484-.387372-.259767-.608398-.5035796-.663086-.7314453v3.6640624zm8.579102-2.7001953v-9.9599609h1.674805v9.9599609zm5.174805-4.3476562h3.486328c-.082032-.4967473-.2666-.8772773-.553711-1.1416016-.287111-.2643242-.638019-.3964843-1.052734-.3964843-.487633 0-.895507.1367173-1.223633.4101562-.328127.2734389-.546875.6494117-.65625 1.1279297zm2.002929 4.5048828c-1.180344 0-2.111162-.3372362-2.79248-1.0117187-.681319-.6744826-1.021973-1.5563097-1.021973-2.6455079 0-.4921899.082031-.9593076.246094-1.4013671.164063-.4420596.395344-.8339827.693848-1.1757813s.676755-.6129547 1.134765-.8134766c.45801-.2005218.965004-.3007812 1.520996-.3007812.555993 0 1.041339.0957022 1.456055.2871094s.742837.4591454.984375.8032226c.241538.3440773.42041.7303039.536621 1.1586914.116212.4283876.174317.9023412.174317 1.421875 0 .1321621-.011394.2324216-.03418.3007813h-4.921875c.027344.6835971.235838 1.1894515.625488 1.5175781.389651.3281266.908037.4921875 1.555176.4921875.756514 0 1.494788-.2506485 2.214844-.7519531l.458007 1.2304687c-.442059.3053401-.88753.5297845-1.336425.6733399-.448896.1435554-.946775.215332-1.493653.215332zm4.785157-.1572266v-4.7578125c0-.4830753-.022787-.9798151-.06836-1.4902343l-.061523-.765625h1.78418v.9160156c.173177-.319012.438637-.5810537.796386-.7861328.357749-.2050792.746255-.3076172 1.165528-.3076172.451174 0 .863604.1093739 1.237304.328125s.660807.5423156.861328.9707031c.601566-.8658897 1.360347-1.2988281 2.276368-1.2988281.856775 0 1.500486.2574844 1.931152.7724609.430666.5149766.645996 1.2213497.645996 2.1191406v4.2998047h-1.695312v-4.1972656c0-.1868499-.015951-.3668611-.047852-.5400391-.031901-.1731779-.08317-.3452139-.153809-.5161132-.070638-.1708993-.175455-.3076167-.314453-.4101563s-.304198-.1538086-.495605-.1538086c-.501305 0-.913736.1914044-1.237305.5742188s-.485352.8066383-.485352 1.2714843v3.9716797h-1.695312v-4.2861328c0-.1367194-.007975-.2677402-.023926-.3930664-.01595-.1253261-.046712-.2597649-.092285-.4033203s-.105957-.2677404-.181152-.3725586c-.075196-.1048182-.180013-.1914059-.314453-.2597656-.134441-.0683597-.288248-.1025391-.461426-.1025391-.478518 0-.877277.1560857-1.196289.4682617-.319012.3121761-.478516.6756165-.478516 1.0903321v4.258789zm14.027343-4.3476562h3.486328c-.082031-.4967473-.2666-.8772773-.55371-1.1416016-.287111-.2643242-.638019-.3964843-1.052735-.3964843-.487632 0-.895506.1367173-1.223633.4101562-.328126.2734389-.546874.6494117-.65625 1.1279297zm2.00293 4.5048828c-1.180344 0-2.111162-.3372362-2.79248-1.0117187-.681319-.6744826-1.021973-1.5563097-1.021973-2.6455079 0-.4921899.08203-.9593076.246094-1.4013671.164063-.4420596.395343-.8339827.693847-1.1757813s.676756-.6129547 1.134766-.8134766c.45801-.2005218.965004-.3007812 1.520996-.3007812s1.041339.0957022 1.456055.2871094c.414715.1914072.742837.4591454.984375.8032226.241537.3440773.420409.7303039.536621 1.1586914.116211.4283876.174316.9023412.174316 1.421875 0 .1321621-.011393.2324216-.034179.3007813h-4.921875c.027343.6835971.235837 1.1894515.625488 1.5175781.38965.3281266.908037.4921875 1.555176.4921875.756514 0 1.494788-.2506485 2.214843-.7519531l.458008 1.2304687c-.442059.3053401-.88753.5297845-1.336426.6733399-.448895.1435554-.946774.215332-1.493652.215332zm4.771484-.1572266v-4.3408203c0-.4967473-.011393-.9672829-.034179-1.4116211-.022787-.4443381-.045573-.7644847-.06836-.9604492l-.034179-.3007812h1.797851v.9365234c.241538-.3645852.563963-.6414379.967285-.8305664.403323-.1891286.794107-.2836914 1.172364-.2836914.405601 0 .761066.0535476 1.066406.1606445s.575357.2802723.810059.5195313c.234701.239259.413573.56852.536621.9877929.123047.419273.18457.9274059.18457 1.5244141v3.9990234h-1.695313v-4.1152343c0-.6197948-.096841-1.0584297-.290527-1.315918s-.513832-.3862305-.960449-.3862305c-.164063 0-.344075.036458-.540039.109375-.195965.0729171-.38623.1743158-.570801.3041992-.184571.1298835-.338378.3007802-.461426.5126954-.123047.2119151-.18457.4431953-.18457.6938476v4.1972656zm12.332032-.0068359h-.683594c-.273439 0-.510416-.0068359-.710938-.0205078-.200521-.013672-.406737-.0432941-.618652-.0888672s-.391926-.1059567-.540039-.1811523c-.148113-.0751957-.290527-.1765945-.427246-.3041993s-.246093-.2814118-.328125-.4614257c-.082032-.180014-.146972-.3953438-.194824-.6459961s-.071778-.5377588-.071778-.8613282v-3.3085937h-1.46289v-1.1347656h1.53125v-1.640625l1.620117-.4990235v2.1396485h1.832031v1.1347656h-1.832031v3.4111328c0 .2187511.01709.3953444.051269.5297852.03418.1344407.085449.2460933.153809.3349609s.18343.1538084.345215.1948242.338378.0683593.529785.0820313c.191407.0136719.460285.0205078.806641.0205078zm4.853515-1.203125c.656254 0 1.133625-.208494 1.432129-.6254883s.447754-.9741176.447754-1.6713867c0-.7154984-.158364-1.2794576-.475098-1.6918945-.316733-.412437-.796383-.6186524-1.438964-.6186524-.62891 0-1.110839.2073547-1.445801.6220703-.334963.4147157-.502442.9729783-.502442 1.6748047 0 .7018265.167479 1.2623677.502442 1.6816407.334962.4192729.828284.6289062 1.47998.6289062zm-.211914 1.3671875c-.569664 0-1.080076-.102538-1.53125-.3076172-.451174-.2050791-.813475-.4785139-1.086914-.8203125s-.480793-.7223286-.62207-1.1416016c-.141277-.4192729-.211914-.8590471-.211914-1.3193359 0-.4876326.072916-.9513324.21875-1.3911133.145834-.4397808.358885-.8385398.63916-1.196289s.650551-.6425771 1.11084-.8544922.982093-.3178711 1.565429-.3178711c.847661 0 1.499347.3076141 1.955079.9228515v-.7451171h1.661132v7.0136718h-1.702148v-.9570312c-.510419.7428422-1.175777 1.1142578-1.996094 1.1142578zm9.679688-.1640625h-.683594c-.273439 0-.510416-.0068359-.710937-.0205078-.200522-.013672-.406738-.0432941-.618653-.0888672s-.391926-.1059567-.540039-.1811523c-.148113-.0751957-.290527-.1765945-.427246-.3041993s-.246093-.2814118-.328125-.4614257c-.082032-.180014-.146972-.3953438-.194824-.6459961s-.071778-.5377588-.071778-.8613282v-3.3085937h-1.46289v-1.1347656h1.53125v-1.640625l1.620117-.4990235v2.1396485h1.832031v1.1347656h-1.832031v3.4111328c0 .2187511.01709.3953444.05127.5297852.034179.1344407.085448.2460933.153808.3349609s.18343.1538084.345215.1948242.338378.0683593.529785.0820313c.191407.0136719.460285.0205078.806641.0205078zm1.421875-8.4560547v-1.4902344h1.640625v1.4902344zm.006836 8.4628906v-7.0136718h1.633789v7.0136718zm7.034179.1572266c-.61068 0-1.155271-.0991201-1.633789-.2973633s-.864744-.4671207-1.158691-.8066406-.517252-.7268859-.669922-1.1621094-.229004-.9012019-.229004-1.3979492c0-.5058619.077473-.9786762.232422-1.418457.154949-.4397809.381672-.8294254.680176-1.1689453.298504-.33952.68587-.6072582 1.162109-.8032227.47624-.1959645 1.012855-.2939453 1.609863-.2939453.610681 0 1.152993.0968415 1.626954.2905273.47396.1936859.85449.4602848 1.141601.7998047s.502441.7291645.645996 1.1689453c.143556.4397809.215332.919431.215332 1.4389649 0 .4876326-.075194.9467752-.225586 1.3774414-.150391.4306662-.370278.8168928-.659668 1.1586914-.289389.3417986-.669919.6129547-1.141601.8134765-.471682.2005219-1.003741.3007813-1.596192.3007813zm-.034179-1.3671875c.332684 0 .624347-.0626621.875-.1879883.250652-.1253261.447753-.2985015.591308-.5195312.143556-.2210298.250651-.4659818.321289-.7348633.070639-.2688816.105957-.5605453.105957-.875 0-.6699252-.158364-1.2190734-.475097-1.647461-.316734-.4283875-.787269-.6425781-1.411621-.6425781-.423831 0-.781574.105956-1.073243.3178711-.291668.2119151-.50244.4864892-.632324.8237305-.129883.3372413-.194824.7200499-.194824 1.1484375 0 .4238302.060384.8043603.181152 1.1416016.120769.3372412.328124.6175119.622071.8408203.293946.2233084.657387.3349609 1.090332.3349609zm5.475586 1.2099609v-4.3408203c0-.4967473-.011393-.9672829-.03418-1.4116211-.022787-.4443381-.045573-.7644847-.068359-.9604492l-.03418-.3007812h1.797851v.9365234c.241538-.3645852.563963-.6414379.967286-.8305664.403322-.1891286.794106-.2836914 1.172363-.2836914.405601 0 .761066.0535476 1.066406.1606445s.575357.2802723.810059.5195313c.234701.239259.413573.56852.536621.9877929.123047.419273.18457.9274059.18457 1.5244141v3.9990234h-1.695312v-4.1152343c0-.6197948-.096842-1.0584297-.290528-1.315918s-.513832-.3862305-.960449-.3862305c-.164063 0-.344074.036458-.540039.109375-.195965.0729171-.38623.1743158-.570801.3041992-.184571.1298835-.338378.3007802-.461426.5126954-.123047.2119151-.18457.4431953-.18457.6938476v4.1972656z" fill="#1106ff"/><g fill-rule="nonzero" stroke="#1106ff"><path d="m174 41h10" stroke-dasharray="4" stroke-linecap="square"/><path d="m305 41h10" stroke-dasharray="4" stroke-linecap="square"/><path d="m626 41h10" stroke-dasharray="4" stroke-linecap="square"/><path d="m785 41h10" stroke-dasharray="4" stroke-linecap="square"/><rect height="57" rx="28.5" stroke-width="3" width="137" x="322.5" y="13.5"/></g><path d="m355 38.9599609v-9.953125h2.775391c1.991546 0 3.479487.4226846 4.463867 1.2680664.98438.8453819 1.476562 2.0610273 1.476562 3.6469727 0 1.6451905-.481928 2.8961546-1.4458 3.7529297s-2.368644 1.2851562-4.214356 1.2851562zm1.736328-1.4902343h1.408203c1.203131 0 2.125974-.3007783 2.768555-.9023438s.963867-1.4856712.963867-2.6523437c0-1.1074274-.324704-1.9539359-.974121-2.5395508s-1.639479-.878418-2.970215-.878418h-1.196289zm10.253906-2.8574219h3.486328c-.082031-.4967473-.2666-.8772773-.55371-1.1416016-.287111-.2643242-.638019-.3964843-1.052735-.3964843-.487632 0-.895506.1367173-1.223633.4101562-.328126.2734389-.546874.6494117-.65625 1.1279297zm2.00293 4.5048828c-1.180344 0-2.111162-.3372362-2.79248-1.0117187-.681319-.6744826-1.021973-1.5563097-1.021973-2.6455079 0-.4921899.08203-.9593076.246094-1.4013671.164063-.4420596.395343-.8339827.693847-1.1757813s.676756-.6129547 1.134766-.8134766c.45801-.2005218.965004-.3007812 1.520996-.3007812s1.041339.0957022 1.456055.2871094c.414715.1914072.742837.4591454.984375.8032226.241537.3440773.420409.7303039.536621 1.1586914.116211.4283876.174316.9023412.174316 1.421875 0 .1321621-.011393.2324216-.034179.3007813h-4.921875c.027343.6835971.235837 1.1894515.625488 1.5175781.38965.3281266.908037.4921875 1.555176.4921875.756514 0 1.494788-.2506485 2.214843-.7519531l.458008 1.2304687c-.442059.3053401-.88753.5297845-1.336426.6733399-.448895.1435554-.946774.215332-1.493652.215332zm7.341797 0c-.615238 0-1.180336-.0865877-1.695313-.2597656-.514976-.173178-.925128-.3805327-1.230468-.6220703l.423828-1.2167969c.287111.2233084.649412.4067376 1.086914.550293s.859047.215332 1.264648.215332c.378257 0 .664225-.0638015.85791-.1914063.193686-.1276048.290528-.3349595.290528-.6220703v-.1230469c0-.145834-.056966-.270019-.170899-.3725585-.113932-.1025396-.375974-.2198887-.786132-.3520508l-.998047-.3212891c-.25521-.0820316-.467122-.1583655-.635742-.2290039-.168621-.0706384-.340657-.160644-.516114-.2700195-.175456-.1093756-.312174-.2290033-.410156-.3588867-.097982-.1298835-.177734-.2893871-.239258-.4785157-.061524-.1891285-.092285-.406737-.092285-.652832 0-.3554705.069498-.6676419.208496-.9365234.138998-.2688816.331542-.4807935.577637-.6357422s.51953-.2700192.820312-.3452149c.300783-.0751957.631183-.1127929.991211-.1127929.446617 0 .893227.0569655 1.339844.1708984s.83854.282551 1.175781.5058594l-.4375 1.1621094c-.273439-.1458341-.593585-.2688798-.960449-.3691407s-.698403-.1503906-.994629-.1503906c-.387372 0-.667642.0478511-.84082.1435547s-.259766.2529286-.259766.4716797c0 .145834.027344.2597652.082031.3417969.054688.0820316.168619.1663407.341797.2529296.173178.086589.45117.1936843.833985.3212891l.909179.3076172c.364586.1230475.657389.2574862.878418.4033203.22103.1458341.398763.3531888.533203.6220703.134441.2688816.201661.6061178.201661 1.0117188 0 .3098973-.051269.590168-.153809.8408203s-.236978.4557283-.40332.6152344c-.166342.159506-.362304.2916661-.587891.3964843-.225587.1048183-.454589.1788735-.687012.222168s-.471678.0649414-.717773.0649414zm4.074219-8.6201172v-1.4902344h1.640625v1.4902344zm.006836 8.4628906v-7.0136718h1.633789v7.0136718zm6.883789-1.2783203c.268881 0 .505858-.0444331.710937-.1333008.205079-.0888676.371419-.2050774.499024-.3486328.127604-.1435554.231282-.3155914.311035-.5161132.079753-.2005219.13444-.40218.164062-.6049805.029623-.2028005.044434-.4181304.044434-.6459961 0-.6835972-.142414-1.2361633-.427246-1.6577149-.284832-.4215515-.712074-.6323242-1.281739-.6323242-.391929 0-.725747.1105132-1.001464.331543-.275718.2210297-.475097.5001611-.598145.8374023-.123047.3372413-.18457.7132141-.18457 1.1279297 0 .7018265.143553 1.2509746.430664 1.647461.287111.3964863.731442.5947265 1.333008.5947265zm-.328125 4.1357422c-.911463 0-1.800126-.1595036-2.666016-.4785156l.293945-1.4628906c.683598.3554705 1.433265.5332031 2.249024.5332031.656253 0 1.168943-.1401353 1.538086-.4204102.369142-.2802748.553711-.7029594.553711-1.2680664v-.5947265c-.401044.5559923-.98665.8339843-1.756836.8339843-1.034511 0-1.863929-.3178679-2.488282-.9536132-.624352-.6357454-.936523-1.4913684-.936523-2.5668946 0-.4921899.06608-.9536111.198242-1.3842773s.328124-.8191715.587891-1.1655274.604978-.6197906 1.035644-.8203125c.430667-.2005218.92171-.3007812 1.473145-.3007812.432945 0 .812336.0865877 1.138184.2597656.325848.173178.577635.396483.755371.6699219v-.7519531h1.797851c-.091146.6927118-.136719 1.4765581-.136719 2.3515625v3.6572265c0 2.5748827-1.212227 3.8623047-3.636718 3.8623047zm5.571289-2.8574219v-4.3408203c0-.4967473-.011393-.9672829-.03418-1.4116211-.022787-.4443381-.045573-.7644847-.068359-.9604492l-.03418-.3007812h1.797852v.9365234c.241537-.3645852.563962-.6414379.967285-.8305664.403322-.1891286.794106-.2836914 1.172363-.2836914.405601 0 .761066.0535476 1.066406.1606445s.575357.2802723.810059.5195313.413573.56852.536621.9877929c.123047.419273.18457.9274059.18457 1.5244141v3.9990234h-1.695312v-4.1152343c0-.6197948-.096842-1.0584297-.290528-1.315918-.193685-.2574883-.513832-.3862305-.960449-.3862305-.164063 0-.344074.036458-.540039.109375-.195964.0729171-.386229.1743158-.570801.3041992-.184571.1298835-.338378.3007802-.461425.5126954-.123048.2119151-.184571.4431953-.184571.6938476v4.1972656zm15.797851-1.2099609c.656254 0 1.133625-.208494 1.432129-.6254883s.447754-.9741176.447754-1.6713867c0-.7154984-.158364-1.2794576-.475098-1.6918945-.316733-.412437-.796383-.6186524-1.438964-.6186524-.62891 0-1.110839.2073547-1.445801.6220703-.334963.4147157-.502442.9729783-.502442 1.6748047 0 .7018265.167479 1.2623677.502442 1.6816407.334962.4192729.828284.6289062 1.47998.6289062zm-.211914 1.3671875c-.569664 0-1.080076-.102538-1.53125-.3076172-.451174-.2050791-.813475-.4785139-1.086914-.8203125s-.480793-.7223286-.62207-1.1416016c-.141277-.4192729-.211914-.8590471-.211914-1.3193359 0-.4876326.072916-.9513324.21875-1.3911133.145834-.4397808.358885-.8385398.63916-1.196289s.650551-.6425771 1.11084-.8544922.982093-.3178711 1.56543-.3178711c.84766 0 1.499346.3076141 1.955078.9228515v-.7451171h1.661132v7.0136718h-1.702148v-.9570312c-.510419.7428422-1.175777 1.1142578-1.996094 1.1142578zm5.714844-.1572266v-4.3408203c0-.4967473-.011393-.9672829-.03418-1.4116211-.022786-.4443381-.045572-.7644847-.068359-.9604492l-.03418-.3007812h1.797852v.9365234c.241537-.3645852.563963-.6414379.967285-.8305664.403322-.1891286.794106-.2836914 1.172363-.2836914.405601 0 .761066.0535476 1.066407.1606445.30534.1070969.575356.2802723.810058.5195313s.413574.56852.536621.9877929c.123048.419273.184571.9274059.184571 1.5244141v3.9990234h-1.695313v-4.1152343c0-.6197948-.096841-1.0584297-.290527-1.315918s-.513833-.3862305-.96045-.3862305c-.164063 0-.344074.036458-.540039.109375-.195964.0729171-.386229.1743158-.5708.3041992-.184572.1298835-.338379.3007802-.461426.5126954-.123048.2119151-.184571.4431953-.184571.6938476v4.1972656zm11.573242-1.2099609c.309898 0 .581054-.0626621.813477-.1879883.232423-.1253261.415852-.2985015.550293-.5195312.13444-.2210298.2347-.4637031.300781-.7280274.066081-.2643242.099121-.5491521.099121-.8544922 0-.6835971-.14811-1.2407205-.444336-1.6713867-.296225-.4306662-.740557-.6459961-1.333008-.6459961-.396486 0-.730304.1070953-1.001465.3212891-.27116.2141938-.464843.4876285-.581054.8203125-.116212.3326839-.174317.7154926-.174317 1.1484375 0 .3144547.03304.6061184.099121.875.066082.2688815.166341.5138335.300782.7348633.13444.2210297.319009.3942051.553711.5195312.234701.1253262.506997.1879883.816894.1879883zm-.348633 1.3671875c-.906905 0-1.666826-.332679-2.279785-.9980469s-.919433-1.5426378-.919433-2.6318359c0-.4967473.070637-.9661436.211914-1.4082031.141276-.4420595.345213-.8362613.611816-1.1826172s.616372-.62093 1.049317-.8237305c.432944-.2028005.918291-.3041992 1.456054-.3041992.483076 0 .892088.0991201 1.227051.2973633.334963.1982431.568521.4044585.700684.6186523v-3.6845703h1.68164v8.0869141c0 .0273438.020508.6516866.061524 1.8730468h-1.736329l-.013671-.8955078c-.041016.1048183-.109375.2119135-.205079.3212891-.095703.1093755-.223306.2221674-.382812.3383789s-.366861.2107744-.62207.2836914c-.25521.072917-.535481.109375-.840821.109375zm-62.330078 17.8427734v-9.953125h2.03711c.141276.3144547.641434 1.4287014 1.500488 3.3427735.859054 1.914072 1.518715 3.3746694 1.979004 4.3818359.350913-.7610715.712075-1.5597289 1.083496-2.3959961s.799802-1.8080999 1.285156-2.9155273.83968-1.9117814 1.062988-2.413086h2.03711v9.953125h-1.626953v-7.109375c-.241538.5240912-1.310212 2.8938592-3.206055 7.109375h-1.27832c-.236981-.5195338-.56966-1.2566684-.998047-2.2114257-.428388-.9547574-.820311-1.8206342-1.175781-2.5976563-.355471-.7770221-.697264-1.5050422-1.025391-2.184082v6.993164zm16.713867.1572266c-.61068 0-1.155271-.0991201-1.633789-.2973633s-.864744-.4671207-1.158691-.8066406-.517252-.7268859-.669922-1.1621094-.229004-.9012019-.229004-1.3979492c0-.5058619.077473-.9786762.232422-1.418457.154949-.4397809.381672-.8294254.680176-1.1689453.298504-.33952.68587-.6072582 1.162109-.8032227.47624-.1959645 1.012855-.2939453 1.609863-.2939453.610681 0 1.152993.0968415 1.626954.2905273.47396.1936859.85449.4602848 1.141601.7998047s.502441.7291645.645996 1.1689453c.143556.4397809.215332.919431.215332 1.4389649 0 .4876326-.075194.9467752-.225586 1.3774414-.150391.4306662-.370278.8168928-.659668 1.1586914-.289389.3417986-.669919.6129547-1.141601.8134765-.471682.2005219-1.003741.3007813-1.596192.3007813zm-.034179-1.3671875c.332684 0 .624347-.0626621.875-.1879883.250652-.1253261.447753-.2985015.591308-.5195312.143556-.2210298.250651-.4659818.321289-.7348633.070639-.2688816.105957-.5605453.105957-.875 0-.6699252-.158364-1.2190734-.475097-1.647461-.316734-.4283875-.787269-.6425781-1.411621-.6425781-.423831 0-.781574.105956-1.073243.3178711-.291668.2119151-.50244.4864892-.632324.8237305-.129883.3372413-.194824.7200499-.194824 1.1484375 0 .4238302.060384.8043603.181152 1.1416016.120769.3372412.328124.6175119.622071.8408203s.657387.3349609 1.090332.3349609zm8.797851 1.3671875c-.569664 0-1.090329-.1002594-1.562011-.3007813-.471682-.2005218-.857909-.4716779-1.158692-.8134765s-.533202-.7325824-.697265-1.1723633c-.164064-.4397808-.246094-.901202-.246094-1.3842773 0-.6927118.142414-1.3159152.427246-1.8696289s.706377-.993488 1.264648-1.319336 1.208818-.4887695 1.95166-.4887695c1.102871 0 1.950518.31445 2.542969.9433594l-.608398 1.09375c-.505862-.4466169-1.091468-.6699219-1.756836-.6699219s-1.17578.2096333-1.53125.6289062c-.355471.419273-.533203.9820929-.533203 1.6884766 0 .6881545.189125 1.2429992.567383 1.6645508.378257.4215516.895504.6323242 1.551757.6323242.091147 0 .182292-.0045572.273438-.0136719.091146-.0091146.173177-.0205077.246094-.0341797.072917-.0136719.149251-.0330402.229004-.0581054.079753-.0250653.146972-.0478515.20166-.0683594.054687-.0205079.11621-.0489907.18457-.0854492s.121907-.0649413.160645-.0854492c.038737-.020508.087727-.0512694.146972-.0922852s.099121-.0683593.119629-.0820312c.020508-.013672.056966-.0398762.109375-.0786133.052409-.0387372.080892-.0603841.085449-.0649414l.512696 1.2441406c-.391929.2734389-.783853.4728184-1.175782.5981445-.391929.1253262-.827146.1879883-1.305664.1879883zm3.875977-.1572266v-9.9599609h1.695312v5.8105469l2.536133-2.8642578h2.337891l-3.342774 3.390625 3.561524 3.6230468h-2.242188l-2.850586-3.0351562v3.0351562zm9.980469.1572266c-.847661 0-1.508462-.2426734-1.982422-.7280273-.473961-.485354-.710938-1.1518513-.710938-1.9995118v-4.4433593h1.681641v4.4160156c0 .4648461.120767.8123361.362305 1.0424805.241537.2301443.574216.3452148.998046.3452148.505862 0 .880696-.1264636 1.124512-.3793945.243816-.252931.365723-.6596652.365723-1.2202149v-4.2041015h1.695312v5.1269531l.082032 1.8867187h-1.75l-.027344-1.0390625c-.022787.100261-.074056.2107742-.153809.331543s-.189127.249511-.328125.3862305c-.138998.1367194-.328124.2506506-.567383.3417969-.239259.0911462-.50244.1367187-.78955.1367187zm8.96875-1.3671875c.314454 0 .589028-.0626621.82373-.1879883.234702-.1253261.41927-.2973622.553711-.5161133s.2347-.4614244.300781-.7280273.099121-.5571273.099121-.871582c0-.4329449-.059244-.8180322-.177734-1.1552735-.11849-.3372412-.315591-.6129546-.591309-.8271484-.275717-.2141938-.614093-.3212891-1.015136-.3212891-.396487 0-.731444.105956-1.004883.3178711s-.469401.4830713-.587891.8134766-.177734.709796-.177734 1.1381836c0 .319012.03304.6140937.099121.8852539s.16748.5172515.304199.7382812c.13672.2210298.322427.3953444.557129.5229493.234702.1276048.506997.1914062.816895.1914062zm-3.34961 3.9101562v-7.3554687c0-.405601-.043294-1.1917259-.129883-2.3583984h1.797852v1.0048828c.054688-.2552096.283689-.516112.687012-.7827149.403322-.2666029.896644-.3999023 1.47998-.3999023.615238 0 1.158689.1697574 1.630371.5092773.471682.33952.827148.7804335 1.066407 1.3227539.239259.5423205.358886 1.1324838.358886 1.7705079 0 .478518-.070637.9399391-.211914 1.3842773s-.341795.8430972-.601562 1.1962891c-.259767.3531918-.592446.6357411-.998047.8476562s-.852211.3178711-1.339844.3178711c-.551435 0-1.020831-.1298815-1.408203-.3896484-.387372-.259767-.608398-.5035796-.663086-.7314453v3.6640624zm11.258789-2.5429687c-.615237 0-1.180336-.0865877-1.695312-.2597656-.514977-.173178-.925129-.3805327-1.230469-.6220703l.423828-1.2167969c.287111.2233084.649412.4067376 1.086914.550293s.859048.215332 1.264649.215332c.378257 0 .664224-.0638015.85791-.1914063s.290527-.3349595.290527-.6220703v-.1230469c0-.145834-.056965-.270019-.170898-.3725585-.113933-.1025396-.375975-.2198887-.786133-.3520508l-.998047-.3212891c-.25521-.0820316-.467121-.1583655-.635742-.2290039s-.340657-.160644-.516113-.2700195c-.175457-.1093756-.312174-.2290033-.410157-.3588867-.097982-.1298835-.177734-.2893871-.239257-.4785157-.061524-.1891285-.092286-.406737-.092286-.652832 0-.3554705.069498-.6676419.208496-.9365234.138999-.2688816.331542-.4807935.577637-.6357422s.51953-.2700192.820313-.3452149c.300782-.0751957.631183-.1127929.991211-.1127929.446616 0 .893227.0569655 1.339843.1708984.446617.1139329.83854.282551 1.175782.5058594l-.4375 1.1621094c-.273439-.1458341-.593586-.2688798-.96045-.3691407-.366863-.1002609-.698403-.1503906-.994629-.1503906-.387371 0-.667642.0478511-.84082.1435547s-.259765.2529286-.259765.4716797c0 .145834.027343.2597652.082031.3417969.054688.0820316.168619.1663407.341797.2529296.173178.086589.45117.1936843.833984.3212891l.90918.3076172c.364585.1230475.657388.2574862.878418.4033203.221029.1458341.398762.3531888.533203.6220703.134441.2688816.20166.6061178.20166 1.0117188 0 .3098973-.051269.590168-.153809.8408203-.102539.2506523-.236978.4557283-.40332.6152344-.166342.159506-.362303.2916661-.587891.3964843-.225587.1048183-.454588.1788735-.687011.222168s-.471679.0649414-.717774.0649414z" fill="#1106ff"/><rect fill-rule="nonzero" height="57" rx="28.5" stroke="#1106ff" stroke-width="3" width="137" x="482.5" y="13.5"/><path d="m523.983398 39.2880859c-.656253 0-1.280596-.1127918-1.873046-.3383789-.592451-.225587-1.121092-.5480122-1.585938-.9672851-.464846-.419273-.835122-.9581673-1.11084-1.6166992-.275717-.658532-.413574-1.3911093-.413574-2.1977539 0-.6744826.092284-1.297686.276855-1.869629.184572-.5719429.434081-1.0572896.748536-1.4560546.314454-.3987651.679034-.7394192 1.09375-1.0219727.414715-.2825535.852211-.4899082 1.3125-.6220703.460288-.1321621.931963-.1982422 1.415039-.1982422 1.303392 0 2.410802.3577438 3.322265 1.0732422l-.676757 1.2099609c-.756515-.5240911-1.590491-.7861328-2.501954-.7861328-.42383 0-.826007.0843091-1.206543.2529297-.380535.1686206-.716632.4055974-1.0083.7109375-.291669.3053401-.524088.6904274-.697266 1.1552734-.173178.4648461-.259766.9752577-.259766 1.53125 0 1.0983128.309893 1.9801399.929688 2.6455079.619795.6653679 1.403641.9980468 2.351562.9980468.998052 0 1.914059-.3349576 2.748047-1.0048828l.581055 1.3740234c-.966151.7519569-2.114577 1.1279297-3.445313 1.1279297zm8.538086.006836c-.61068 0-1.155271-.0991201-1.633789-.2973633s-.864744-.4671207-1.158691-.8066406c-.293947-.33952-.517252-.7268859-.669922-1.1621094s-.229004-.9012019-.229004-1.3979492c0-.5058619.077473-.9786762.232422-1.4184571.154949-.4397808.381672-.8294253.680176-1.1689453.298504-.3395199.68587-.6072581 1.162109-.8032226.47624-.1959645 1.012855-.2939453 1.609863-.2939453.610681 0 1.152993.0968414 1.626954.2905273.47396.1936859.85449.4602848 1.141601.7998047s.502441.7291645.645996 1.1689453c.143556.4397809.215332.919431.215332 1.4389648 0 .4876327-.075194.9467752-.225586 1.3774415-.150391.4306662-.370278.8168928-.659668 1.1586914-.289389.3417985-.669919.6129547-1.141601.8134765-.471682.2005219-1.003741.3007813-1.596192.3007813zm-.034179-1.3671875c.332684 0 .624347-.0626622.875-.1879883.250652-.1253262.447753-.2985015.591308-.5195313.143556-.2210297.250651-.4659817.321289-.7348632.070639-.2688816.105957-.5605453.105957-.875 0-.6699253-.158364-1.2190734-.475097-1.647461-.316734-.4283875-.787269-.6425781-1.411621-.6425781-.423831 0-.781574.105956-1.073243.3178711-.291668.2119151-.50244.4864892-.632324.8237305-.129883.3372412-.194824.7200499-.194824 1.1484375 0 .4238302.060384.8043603.181152 1.1416015.120769.3372413.328124.6175119.622071.8408203.293946.2233084.657387.334961 1.090332.334961zm5.366211 1.2099609v-9.9599609h1.674804v9.9599609zm3.595703 0v-9.9599609h1.674804v9.9599609zm5.174804-4.3476562h3.486329c-.082032-.4967473-.266601-.8772774-.553711-1.1416016-.287111-.2643242-.638019-.3964844-1.052735-.3964844-.487632 0-.895506.1367174-1.223633.4101563-.328126.2734388-.546874.6494116-.65625 1.1279297zm2.00293 4.5048828c-1.180344 0-2.111162-.3372362-2.79248-1.0117188-.681319-.6744825-1.021973-1.5563096-1.021973-2.6455078 0-.4921899.08203-.9593077.246094-1.4013672.164063-.4420595.395343-.8339826.693847-1.1757812.298505-.3417986.676756-.6129548 1.134766-.8134766s.965004-.3007812 1.520996-.3007812 1.041339.0957021 1.456055.2871093c.414715.1914072.742837.4591455.984375.8032227.241537.3440772.420409.7303038.536621 1.1586914.116211.4283876.174316.9023412.174316 1.421875 0 .1321621-.011393.2324215-.034179.3007813h-4.921875c.027344.6835971.235838 1.1894514.625488 1.5175781.38965.3281266.908037.4921875 1.555176.4921875.756514 0 1.494788-.2506486 2.214843-.7519532l.458008 1.2304688c-.442059.3053401-.88753.5297844-1.336426.6733398-.448895.1435554-.946774.2153321-1.493652.2153321zm8.09375 0c-.569664 0-1.09033-.1002594-1.562012-.3007813-.471682-.2005218-.857908-.471678-1.158691-.8134765-.300783-.3417986-.533202-.7325825-.697266-1.1723633-.164063-.4397809-.246093-.901202-.246093-1.3842774 0-.6927118.142414-1.3159152.427246-1.8696289s.706377-.9934879 1.264648-1.3193359 1.208818-.4887695 1.95166-.4887695c1.10287 0 1.950518.3144499 2.542969.9433593l-.608398 1.09375c-.505862-.4466168-1.091468-.6699218-1.756836-.6699218s-1.17578.2096333-1.53125.6289062c-.355471.4192729-.533203.9820928-.533203 1.6884766 0 .6881545.189125 1.2429992.567382 1.6645508.378257.4215515.895505.6323242 1.551758.6323242.091146 0 .182291-.0045573.273438-.0136719.091146-.0091146.173176-.0205077.246093-.0341797.072917-.0136719.149251-.0330402.229004-.0581055.079753-.0250652.146973-.0478514.20166-.0683593.054688-.0205079.116211-.0489907.184571-.0854492.06836-.0364586.121907-.0649414.160644-.0854493.038738-.0205079.087728-.0512693.146973-.0922851.059245-.0410159.099121-.0683593.119629-.0820313.020508-.0136719.056966-.0398761.109375-.0786133.052409-.0387371.080892-.060384.085449-.0649414l.512695 1.2441407c-.391929.2734388-.783852.4728183-1.175781.5981445-.391929.1253261-.827146.1879883-1.305664.1879883zm7.963867-.1640625h-.683593c-.273439 0-.510416-.0068359-.710938-.0205078-.200522-.013672-.406737-.0432941-.618652-.0888672-.211915-.0455732-.391927-.1059567-.540039-.1811524-.148113-.0751957-.290527-.1765944-.427246-.3041992-.13672-.1276048-.246094-.2814118-.328125-.4614258-.082032-.1800139-.146973-.3953438-.194825-.6459961-.047851-.2506523-.071777-.5377588-.071777-.8613281v-3.3085937h-1.462891v-1.1347657h1.53125v-1.640625l1.620118-.4990234v2.1396484h1.832031v1.1347657h-1.832031v3.4111328c0 .2187511.017089.3953444.051269.5297851.03418.1344408.085449.2460933.153809.334961.068359.0888676.18343.1538084.345215.1948242.161784.0410158.338377.0683593.529785.0820312.191407.013672.460284.0205078.80664.0205078zm1.421875-8.4560547v-1.4902344h1.640625v1.4902344zm.006836 8.4628906v-7.0136719h1.633789v7.0136719zm3.684571 0v-4.3408203c0-.4967473-.011394-.9672829-.03418-1.4116211-.022787-.4443382-.045573-.7644847-.06836-.9604492l-.034179-.3007813h1.797851v.9365235c.241538-.3645852.563963-.6414379.967286-.8305664.403322-.1891286.794106-.2836914 1.172363-.2836914.405601 0 .761066.0535476 1.066406.1606445s.575357.2802722.810059.5195312c.234701.2392591.413573.5685201.536621.987793.123047.4192729.18457.9274059.18457 1.5244141v3.9990234h-1.695312v-4.1152344c0-.6197947-.096842-1.0584297-.290528-1.3159179-.193686-.2574883-.513832-.3862305-.960449-.3862305-.164063 0-.344075.036458-.540039.109375-.195965.072917-.38623.1743158-.570801.3041992-.184571.1298835-.338378.3007802-.461426.5126953-.123047.2119152-.18457.4431954-.18457.6938477v4.1972656zm11.566406-1.2783203c.268881 0 .505858-.0444331.710937-.1333008.205079-.0888676.371419-.2050774.499024-.3486328s.231282-.3155914.311035-.5161133c.079753-.2005218.13444-.40218.164062-.6049804.029623-.2028005.044434-.4181304.044434-.6459961 0-.6835972-.142414-1.2361633-.427246-1.6577149s-.712074-.6323242-1.281738-.6323242c-.391929 0-.725748.1105132-1.001465.331543-.275718.2210297-.475097.500161-.598145.8374023-.123047.3372413-.18457.7132141-.18457 1.1279297 0 .7018264.143553 1.2509746.430664 1.6474609.287111.3964864.731442.5947266 1.333008.5947266zm-.328125 4.1357422c-.911463 0-1.800126-.1595036-2.666016-.4785156l.293945-1.4628907c.683598.3554706 1.433265.5332032 2.249024.5332032.656253 0 1.168943-.1401354 1.538086-.4204102.369142-.2802748.553711-.7029594.553711-1.2680664v-.5947266c-.401044.5559924-.98665.8339844-1.756836.8339844-1.034511 0-1.863929-.3178679-2.488281-.9536133-.624352-.6357453-.936524-1.4913683-.936524-2.5668945 0-.49219.06608-.9536111.198242-1.3842773.132162-.4306663.328124-.8191715.587891-1.1655274s.604978-.6197907 1.035645-.8203125c.430666-.2005218.921709-.3007812 1.473144-.3007812.432945 0 .812336.0865876 1.138184.2597656.325848.1731779.577635.396483.755371.6699219v-.7519532h1.797851c-.091146.6927118-.136718 1.4765582-.136718 2.3515625v3.6572266c0 2.5748827-1.212228 3.8623047-3.636719 3.8623047zm-60.487793 15.1425781v-9.953125h6.077148v1.4902344h-4.34082v2.7138672h4.087891v1.4970703h-4.087891v4.2519531zm9.078125-4.3476562h3.486328c-.082032-.4967473-.2666-.8772774-.553711-1.1416016s-.638019-.3964844-1.052734-.3964844c-.487633 0-.895507.1367174-1.223633.4101563-.328127.2734388-.546875.6494116-.65625 1.1279297zm2.00293 4.5048828c-1.180345 0-2.111162-.3372362-2.792481-1.0117188-.681318-.6744825-1.021973-1.5563096-1.021973-2.6455078 0-.4921899.082031-.9593077.246094-1.4013672s.395344-.8339826.693848-1.1757812.676755-.6129548 1.134765-.8134766c.458011-.2005218.965004-.3007812 1.520997-.3007812.555992 0 1.041339.0957021 1.456054.2871093.414716.1914072.742838.4591455.984375.8032227.241538.3440772.42041.7303038.536621 1.1586914.116212.4283876.174317.9023412.174317 1.421875 0 .1321621-.011393.2324215-.03418.3007813h-4.921875c.027344.6835971.235838 1.1894514.625488 1.5175781.389651.3281266.908037.4921875 1.555176.4921875.756514 0 1.494788-.2506486 2.214844-.7519532l.458008 1.2304688c-.44206.3053401-.887531.5297844-1.336426.6733398-.448896.1435554-.946775.2153321-1.493652.2153321zm6.24121-4.5048828h3.486329c-.082032-.4967473-.266601-.8772774-.553711-1.1416016-.287111-.2643242-.638019-.3964844-1.052735-.3964844-.487632 0-.895506.1367174-1.223633.4101563-.328126.2734388-.546874.6494116-.65625 1.1279297zm2.00293 4.5048828c-1.180344 0-2.111162-.3372362-2.79248-1.0117188-.681319-.6744825-1.021973-1.5563096-1.021973-2.6455078 0-.4921899.08203-.9593077.246094-1.4013672.164063-.4420595.395343-.8339826.693847-1.1757812.298505-.3417986.676756-.6129548 1.134766-.8134766s.965004-.3007812 1.520996-.3007812c.555993 0 1.041339.0957021 1.456055.2871093.414715.1914072.742837.4591455.984375.8032227s.420409.7303038.536621 1.1586914c.116211.4283876.174316.9023412.174316 1.421875 0 .1321621-.011393.2324215-.034179.3007813h-4.921875c.027344.6835971.235838 1.1894514.625488 1.5175781.38965.3281266.908037.4921875 1.555176.4921875.756514 0 1.494788-.2506486 2.214843-.7519532l.458008 1.2304688c-.442059.3053401-.88753.5297844-1.336425.6733398-.448896.1435554-.946775.2153321-1.493653.2153321zm7.977539-1.3671875c.309898 0 .581054-.0626622.813477-.1879883.232423-.1253262.415852-.2985015.550293-.5195313.134441-.2210297.2347-.4637031.300781-.7280273s.099121-.5491521.099121-.8544922c0-.6835972-.14811-1.2407205-.444336-1.6713867-.296225-.4306662-.740557-.6459961-1.333008-.6459961-.396486 0-.730304.1070953-1.001464.3212891-.271161.2141937-.464844.4876285-.581055.8203125-.116212.3326839-.174317.7154926-.174317 1.1484375 0 .3144547.03304.6061184.099122.875.066081.2688815.16634.5138335.300781.7348632.134441.2210298.319009.3942051.553711.5195313.234701.1253261.506997.1879883.816894.1879883zm-.348633 1.3671875c-.906905 0-1.666826-.332679-2.279785-.9980469s-.919433-1.5426378-.919433-2.6318359c0-.4967473.070637-.9661437.211914-1.4082032.141276-.4420595.345213-.8362613.611816-1.1826171.266603-.3463559.616372-.62093 1.049317-.8237305.432944-.2028005.918291-.3041992 1.456054-.3041992.483076 0 .892088.0991201 1.227051.2973632.334963.1982432.568521.4044586.700684.6186524v-3.6845703h1.68164v8.086914c0 .0273439.020508.6516866.061524 1.8730469h-1.736328l-.013672-.8955078c-.041016.1048182-.109375.2119135-.205078.3212891-.095704.1093755-.223307.2221674-.382813.3383789s-.366861.2107743-.62207.2836914c-.25521.072917-.535481.109375-.840821.109375zm9.22168-1.3671875c.314455 0 .591307-.0626622.830567-.1879883.239259-.1253262.428384-.2973622.567382-.5161133s.243815-.4602851.314453-.7246094c.070639-.2643242.105957-.5491521.105957-.8544922 0-.6744825-.150389-1.2304665-.451171-1.6679687-.300783-.4375022-.738279-.65625-1.3125-.65625-.597009 0-1.070962.2198871-1.421875.659668-.350914.4397808-.526368.985511-.526368 1.637207 0 .4147156.06722.7918277.201661 1.1313477.13444.3395199.347492.6209298.63916.8442382s.642576.334961 1.052734.334961zm.314453 1.3671875c-.469403 0-.896645-.1013988-1.281738-.3041992-.385093-.2028005-.661946-.4431953-.830566-.7211915v.8681641h-1.736329c.009115-.3098974.01823-.5856108.027344-.8271484.009115-.2415377.015951-.4135737.020508-.5161133s.007975-.1914059.010254-.2666016.003418-.1264647.003418-.1538086v-8.196289h1.68164v3.930664c.022787-.0820316.079753-.182291.170899-.3007812s.219888-.2449538.38623-.3793945c.166342-.1344408.394205-.248372.683594-.3417969.28939-.093425.607258-.1401367.953613-.1401367.98438 0 1.761391.3395148 2.331055 1.0185547.569664.6790398.854492 1.5563097.854492 2.6318359 0 .5377631-.087727 1.0390602-.263183 1.5039062-.175457.4648461-.411294.8567693-.70752 1.1757813-.296225.319012-.643715.5685212-1.04248.7485351-.398765.180014-.819171.2700196-1.261231.2700196zm8.415039-1.3671875c.656254 0 1.133625-.208494 1.432129-.6254883s.447754-.9741176.447754-1.6713867c0-.7154984-.158364-1.2794576-.475098-1.6918946-.316733-.4124369-.796383-.6186523-1.438964-.6186523-.62891 0-1.110839.2073547-1.445801.6220703-.334963.4147156-.502442.9729783-.502442 1.6748047s.167479 1.2623677.502442 1.6816406c.334962.419273.828284.6289063 1.47998.6289063zm-.211914 1.3671875c-.569664 0-1.080076-.1025381-1.53125-.3076172-.451174-.2050792-.813475-.4785139-1.086914-.8203125s-.480793-.7223286-.62207-1.1416016c-.141277-.4192729-.211914-.8590472-.211914-1.3193359 0-.4876327.072916-.9513324.21875-1.3911133.145834-.4397808.358885-.8385399.63916-1.1962891.280275-.3577491.650551-.642577 1.11084-.8544921.460289-.2119152.982093-.3178711 1.565429-.3178711.847661 0 1.499347.3076141 1.955079.9228515v-.7451172h1.661132v7.0136719h-1.702148v-.9570312c-.510419.7428422-1.175777 1.1142578-1.996094 1.1142578zm9.03711 0c-.569665 0-1.09033-.1002594-1.562012-.3007813-.471682-.2005218-.857909-.471678-1.158692-.8134765-.300782-.3417986-.533202-.7325825-.697265-1.1723633-.164063-.4397809-.246094-.901202-.246094-1.3842774 0-.6927118.142414-1.3159152.427246-1.8696289s.706378-.9934879 1.264649-1.3193359 1.208818-.4887695 1.95166-.4887695c1.10287 0 1.950518.3144499 2.542969.9433593l-.608399 1.09375c-.505862-.4466168-1.091468-.6699218-1.756836-.6699218s-1.175779.2096333-1.53125.6289062c-.35547.4192729-.533203.9820928-.533203 1.6884766 0 .6881545.189126 1.2429992.567383 1.6645508.378257.4215515.895504.6323242 1.551758.6323242.091146 0 .182291-.0045573.273437-.0136719s.173177-.0205077.246094-.0341797c.072917-.0136719.149251-.0330402.229004-.0581055.079753-.0250652.146972-.0478514.20166-.0683593s.116211-.0489907.18457-.0854492c.06836-.0364586.121908-.0649414.160645-.0854493s.087727-.0512693.146972-.0922851c.059246-.0410159.099121-.0683593.119629-.0820313.020508-.0136719.056966-.0398761.109375-.0786133.052409-.0387371.080892-.060384.08545-.0649414l.512695 1.2441407c-.391929.2734388-.783852.4728183-1.175781.5981445-.391929.1253261-.827146.1879883-1.305664.1879883zm3.875976-.1572266v-9.9599609h1.695313v5.8105468l2.536132-2.8642578h2.337891l-3.342773 3.390625 3.561523 3.6230469h-2.242187l-2.850586-3.0351562v3.0351562z" fill="#1106ff"/><path d="m466 41h10" fill-rule="nonzero" stroke="#1106ff" stroke-dasharray="4" stroke-linecap="square"/><path d="m391 85c18.222222 29.333333 45.555556 44 82 44s63.777778-14.666667 82-44" fill-rule="nonzero" stroke="#1106ff" stroke-dasharray="4" stroke-linecap="square"/><path d="m711 85c18.222222 29.333333 45.555556 44 82 44s63.777778-14.666667 82-44" fill-rule="nonzero" stroke="#1106ff" stroke-dasharray="4" stroke-linecap="square"/></g></svg>