<svg height="422" viewBox="0 0 931 422" width="931" xmlns="http://www.w3.org/2000/svg" xmlns:xlink="http://www.w3.org/1999/xlink"><defs><path id="a" d="m13.7334319 22.0849274h46.5105561l-2.6551301 12.1776966h-32.0446745l-3.2044675 15.2221207h28.0162012l-2.3804616 11.2551438h-27.9246449l-5.7680414 27.2153067h-14.2827692zm44.2216508 38.28594c0-5.3508329.8239977-10.4248224 2.4720178-15.2221208 1.64802-4.7972983 4.0131985-9.0256229 7.0956065-12.6851005 3.0824079-3.6594777 6.8361751-6.5654898 11.2614141-8.7181237 4.4252391-2.1526339 9.3844844-3.2289347 14.8778846-3.2289347 4.3947202 0 8.3926353.5996533 11.9938643 1.7989779s6.653072 2.9982845 9.155621 5.3969337 4.440469 5.3507885 5.813819 8.8565066c1.37335 3.505718 2.060015 7.5649096 2.060015 12.1776965 0 5.4123367-.793479 10.5785805-2.380461 15.4988866-1.586983 4.920306-3.891124 9.2562607-6.912494 13.0079941-3.021371 3.7517333-6.744619 6.7192484-11.169858 8.9026342-4.4252395 2.1833858-9.5065585 3.2750623-15.2441098 3.2750623-9.2777426 0-16.434315-2.4908676-21.4699319-7.4726774-5.0356169-4.9818099-7.5533876-12.1776495-7.5533876-21.5877348zm14.3743254 0c0 2.2756415.2899251 4.4282431.8697841 6.4578693.5798589 2.0296263 1.4648934 3.8285862 2.6551301 5.3969338 1.1902367 1.5683475 2.7161584 2.8137813 4.5778107 3.7363387s4.104757 1.3838291 6.7293816 1.3838291c3.5401913 0 6.6225529-.8456649 9.2471775-2.5370201s4.8219519-3.8747082 6.5920469-6.5501247c1.770096-2.6754164 3.097648-5.6429314 3.982696-8.9026342.885047-3.2597027 1.327565-6.4578537 1.327565-9.5945488 0-2.3371454-.259407-4.5358742-.778228-6.5962523-.518821-2.0603782-1.358078-3.8593381-2.517796-5.3969337-1.159718-1.5375957-2.655121-2.7676537-4.486254-3.6902111-1.8311337-.9225574-4.0894977-1.3838292-6.7751601-1.3838292-3.6622668 0-6.851443.845665-9.5676242 2.5370202s-4.9440268 3.8747082-6.6836035 6.5501246c-1.7395768 2.6754164-3.0366102 5.6583072-3.8911391 8.9487619s-1.281787 6.5039814-1.281787 9.6406765zm56.8564079 0c0-5.3508329.823998-10.4248224 2.472018-15.2221208 1.64802-4.7972983 4.013199-9.0256229 7.095607-12.6851005 3.082407-3.6594777 6.836175-6.5654898 11.261414-8.7181237s9.384484-3.2289347 14.877884-3.2289347c4.39472 0 8.392635.5996533 11.993864 1.7989779s6.653072 2.9982845 9.155621 5.3969337 4.44047 5.3507885 5.81382 8.8565066c1.37335 3.505718 2.060015 7.5649096 2.060015 12.1776965 0 5.4123367-.793479 10.5785805-2.380462 15.4988866-1.586982 4.920306-3.891124 9.2562607-6.912494 13.0079941-3.02137 3.7517333-6.744619 6.7192484-11.169858 8.9026342s-9.506558 3.2750623-15.244109 3.2750623c-9.277743 0-16.434315-2.4908676-21.469932-7.4726774-5.035617-4.9818099-7.553388-12.1776495-7.553388-21.5877348zm14.374326 0c0 2.2756415.289925 4.4282431.869784 6.4578693.579859 2.0296263 1.464893 3.8285862 2.65513 5.3969338 1.190237 1.5683475 2.716158 2.8137813 4.577811 3.7363387 1.861652.9225574 4.104757 1.3838291 6.729381 1.3838291 3.540191 0 6.622553-.8456649 9.247178-2.5370201 2.624624-1.6913552 4.821951-3.8747082 6.592047-6.5501247 1.770096-2.6754164 3.097647-5.6429314 3.982695-8.9026342.885048-3.2597027 1.327565-6.4578537 1.327565-9.5945488 0-2.3371454-.259406-4.5358742-.778227-6.5962523-.518822-2.0603782-1.358078-3.8593381-2.517796-5.3969337-1.159718-1.5375957-2.655121-2.7676537-4.486255-3.6902111-1.831133-.9225574-4.089497-1.3838292-6.775159-1.3838292-3.662267 0-6.851444.845665-9.567625 2.5370202s-4.944027 3.8747082-6.683603 6.5501246c-1.739577 2.6754164-3.03661 5.6583072-3.891139 8.9487619s-1.281787 6.5039814-1.281787 9.6406765zm78.921455-26.1082434h-20.508592l2.563574-12.1776966h54.567503l-2.563574 12.1776966h-19.593029l-11.169858 53.6925712h-14.465882zm52.187041 14.4840784h16.297006c2.624625 0 4.898248-.7226591 6.820938-2.167999s2.884021-3.6133172 2.884021-6.503997c0-2.5831607-.686665-4.3513691-2.060015-5.3046784s-3.219715-1.4299568-5.539151-1.4299568h-15.198331zm-8.331615-26.661775h27.466864c3.29604 0 6.256328.2152601 8.880953.6457869 2.624624.4305268 4.85247 1.2146888 6.683603 2.3525096 1.831134 1.1378208 3.234981 2.7061448 4.211586 4.7050191.976604 1.9988743 1.464899 4.5666205 1.464899 7.7033157 0 1.8451147-.274666 3.6440746-.824006 5.3969337-.54934 1.752859-1.358078 3.321183-2.426239 4.7050191s-2.349936 2.5370155-3.845361 3.4595729c-1.495426.9225574-3.219717 1.5068349-5.172926 1.7528502v.1845106c3.112927.8610536 5.508624 2.5062562 7.187163 4.9356573 1.678538 2.4294011 2.517795 5.2431589 2.517795 8.4413579 0 3.5672218-.686664 6.7038699-2.060014 9.4100382s-3.219716 4.9510243-5.539151 6.7346352c-2.319436 1.783611-4.97454 3.1366748-7.965391 4.0592322s-6.13425 1.3838292-9.43029 1.3838292h-34.791361zm2.472018 54.615124h18.036574c3.29604 0 5.996921-.8917921 8.102725-2.675403 2.105803-1.783611 3.158689-4.4282358 3.158689-7.9339539 0-1.7221071-.350962-3.0751709-1.052896-4.0592322-.701935-.9840612-1.602229-1.7374717-2.700909-2.2602542-1.09868-.5227826-2.319417-.8456728-3.662248-.9686805-1.342831-.1230076-2.655124-.1845105-3.936917-.1845105h-14.099657zm81.851254-54.615124h14.74055l10.89519 65.8702678h-14.28277l-2.105792-14.6685891h-24.445509l-8.240059 14.6685891h-15.106775zm-9.521846 40.4078113h17.487237l-3.204468-26.2004986h-.183112zm54.018166-40.4078113h14.465881l-11.169858 53.6925712h31.586894l-2.563574 12.1776966h-45.961219zm52.553266 0h14.465881l-11.169858 53.6925712h31.586894l-2.563574 12.1776966h-45.961219z"/><filter id="b" height="362.6%" width="137.5%" x="-18.8%" y="-129.9%"><feOffset dx="0" dy="1" in="SourceAlpha" result="shadowOffsetOuter1"/><feGaussianBlur in="shadowOffsetOuter1" result="shadowBlurOuter1" stdDeviation="30"/><feColorMatrix in="shadowBlurOuter1" type="matrix" values="0 0 0 0 0   0 0 0 0 0   0 0 0 0 0  0 0 0 0.354534647 0"/></filter></defs><g fill="none" fill-rule="evenodd"><g fill-rule="nonzero" transform=""><path d="m898.73545.93118846c1.374908-.81546609 3.150685-.36216377 3.966308 1.01247907s.362234 3.15007692-1.012674 3.96554301l-186.305258 110.49875346c-1.374908.815466-3.150684.362163-3.966308-1.012479-.815623-1.374643-.362233-3.150077 1.012675-3.965543z" fill="#e542e4"/><path d="m930.394694 70.5769972.537024.9050949-187.210527 111.0356739-.537024-.905095z" fill="#e542e4"/><path d="m423.054954 70.5769972.537024.9050949-187.210527 111.0356739-.537024-.905095z" fill="#e35454"/><path d="m620.412218 57.9485682.537024.905095-187.210527 111.0356738-.537024-.905095z" fill="#f09c61"/><path d="m770.930024 132.666773.537025.905095-187.210527 111.035673-.537024-.905094z" fill="#e35454"/><path d="m676.116456 130.89877c1.374908-.815467 3.150685-.362164 3.966308 1.012479.815624 1.374642.362234 3.150076-1.012674 3.965543l-1.810539 1.073841c-1.374908.815466-3.150685.362164-3.966308-1.012479-.815624-1.374643-.362234-3.150077 1.012674-3.965543zm-3.621078 2.147682c1.374908-.815466 3.150685-.362163 3.966308 1.012479.815624 1.374643.362234 3.150077-1.012674 3.965543l-1.810539 1.073842c-1.374908.815466-3.150685.362164-3.966308-1.012479-.815624-1.374643-.362234-3.150077 1.012674-3.965543zm-3.621078 2.147683c1.374908-.815466 3.150685-.362164 3.966308 1.012479s.362234 3.150077-1.012674 3.965543l-1.810539 1.073842c-1.374908.815466-3.150685.362164-3.966308-1.012479-.815624-1.374643-.362234-3.150077 1.012674-3.965543zm-3.621078 2.147683c1.374908-.815466 3.150685-.362164 3.966308 1.012479s.362234 3.150077-1.012674 3.965543l-1.810539 1.073842c-1.374908.815466-3.150685.362163-3.966308-1.012479-.815624-1.374643-.362234-3.150077 1.012674-3.965543zm-3.621078 2.147683c1.374908-.815466 3.150685-.362164 3.966308 1.012479s.362234 3.150077-1.012674 3.965543l-1.810539 1.073841c-1.374908.815467-3.150685.362164-3.966308-1.012479-.815624-1.374642-.362234-3.150076 1.012674-3.965543zm-3.621078 2.147683c1.374908-.815466 3.150685-.362164 3.966308 1.012479s.362234 3.150077-1.012674 3.965543l-1.810539 1.073841c-1.374908.815466-3.150685.362164-3.966308-1.012479-.815624-1.374643-.362234-3.150077 1.012674-3.965543zm-3.621078 2.147683c1.374908-.815466 3.150685-.362164 3.966308 1.012479s.362234 3.150077-1.012674 3.965543l-1.810539 1.073841c-1.374908.815466-3.150685.362164-3.966308-1.012479-.815624-1.374643-.362234-3.150077 1.012674-3.965543zm-3.621078 2.147683c1.374908-.815467 3.150684-.362164 3.966308 1.012479.815623 1.374642.362234 3.150077-1.012674 3.965543l-1.81054 1.073841c-1.374908.815466-3.150684.362164-3.966307-1.012479-.815624-1.374643-.362234-3.150077 1.012674-3.965543zm-3.621078 2.147682c1.374908-.815466 3.150684-.362163 3.966308 1.01248.815623 1.374642.362233 3.150076-1.012675 3.965543l-1.810539 1.073841c-1.374908.815466-3.150684.362164-3.966308-1.012479-.815623-1.374643-.362233-3.150077 1.012675-3.965543zm-3.621078 2.147683c1.374908-.815466 3.150684-.362163 3.966308 1.012479.815623 1.374643.362233 3.150077-1.012675 3.965543l-1.810539 1.073842c-1.374908.815466-3.150684.362164-3.966308-1.012479-.815623-1.374643-.362233-3.150077 1.012675-3.965543zm-3.621078 2.147683c1.374908-.815466 3.150684-.362164 3.966308 1.012479.815623 1.374643.362233 3.150077-1.012675 3.965543l-1.810539 1.073842c-1.374908.815466-3.150684.362163-3.966308-1.012479-.815623-1.374643-.362233-3.150077 1.012675-3.965543zm-3.621078 2.147683c1.374908-.815466 3.150684-.362164 3.966308 1.012479.815623 1.374643.362233 3.150077-1.012675 3.965543l-1.810539 1.073842c-1.374908.815466-3.150684.362163-3.966308-1.01248-.815623-1.374642-.362233-3.150076 1.012675-3.965543zm-3.621078 2.147683c1.374908-.815466 3.150684-.362164 3.966308 1.012479.815623 1.374643.362233 3.150077-1.012675 3.965543l-1.810539 1.073841c-1.374908.815467-3.150684.362164-3.966308-1.012479-.815623-1.374642-.362233-3.150077 1.012675-3.965543zm-3.621078 2.147683c1.374908-.815466 3.150684-.362164 3.966308 1.012479.815623 1.374643.362233 3.150077-1.012675 3.965543l-1.810539 1.073841c-1.374908.815466-3.150684.362164-3.966308-1.012479-.815623-1.374643-.362233-3.150077 1.012675-3.965543zm-3.621078 2.147683c1.374908-.815466 3.150684-.362164 3.966308 1.012479.815623 1.374643.362233 3.150077-1.012675 3.965543l-1.810539 1.073841c-1.374908.815466-3.150684.362164-3.966308-1.012479-.815623-1.374643-.362233-3.150077 1.012675-3.965543zm-3.621078 2.147683c1.374908-.815467 3.150684-.362164 3.966308 1.012479.815623 1.374642.362233 3.150077-1.012675 3.965543l-1.810539 1.073841c-1.374908.815466-3.150684.362164-3.966308-1.012479-.815623-1.374643-.362233-3.150077 1.012675-3.965543zm-3.621078 2.147682c1.374908-.815466 3.150684-.362163 3.966307 1.012479.815624 1.374643.362234 3.150077-1.012674 3.965543l-1.810539 1.073842c-1.374908.815466-3.150684.362164-3.966308-1.012479-.815623-1.374643-.362233-3.150077 1.012675-3.965543zm-3.621079 2.147683c1.374908-.815466 3.150685-.362164 3.966308 1.012479.815624 1.374643.362234 3.150077-1.012674 3.965543l-1.810539 1.073842c-1.374908.815466-3.150685.362164-3.966308-1.012479s-.362234-3.150077 1.012674-3.965543zm-3.621078 2.147683c1.374908-.815466 3.150685-.362164 3.966308 1.012479.815624 1.374643.362234 3.150077-1.012674 3.965543l-1.810539 1.073842c-1.374908.815466-3.150685.362163-3.966308-1.012479-.815623-1.374643-.362234-3.150077 1.012674-3.965543zm-3.621078 2.147683c1.374908-.815466 3.150685-.362164 3.966308 1.012479.815624 1.374643.362234 3.150077-1.012674 3.965543l-1.810539 1.073841c-1.374908.815467-3.150685.362164-3.966308-1.012479-.815623-1.374642-.362234-3.150076 1.012674-3.965543zm-3.621078 2.147683c1.374908-.815466 3.150685-.362164 3.966308 1.012479.815624 1.374643.362234 3.150077-1.012674 3.965543l-1.810539 1.073841c-1.374908.815466-3.150685.362164-3.966308-1.012479s-.362234-3.150077 1.012674-3.965543zm-3.621078 2.147683c1.374908-.815466 3.150685-.362164 3.966308 1.012479.815624 1.374643.362234 3.150077-1.012674 3.965543l-1.810539 1.073841c-1.374908.815466-3.150685.362164-3.966308-1.012479s-.362234-3.150077 1.012674-3.965543zm-3.621078 2.147683c1.374908-.815467 3.150685-.362164 3.966308 1.012479.815624 1.374642.362234 3.150077-1.012674 3.965543l-1.810539 1.073841c-1.374908.815466-3.150685.362164-3.966308-1.012479-.815624-1.374643-.362234-3.150077 1.012674-3.965543zm-3.621078 2.147682c1.374908-.815466 3.150685-.362163 3.966308 1.01248.815624 1.374642.362234 3.150076-1.012674 3.965543l-1.810539 1.073841c-1.374908.815466-3.150685.362164-3.966308-1.012479-.815624-1.374643-.362234-3.150077 1.012674-3.965543zm-3.621078 2.147683c1.374908-.815466 3.150685-.362163 3.966308 1.012479.815623 1.374643.362234 3.150077-1.012674 3.965543l-1.810539 1.073842c-1.374908.815466-3.150685.362164-3.966308-1.012479-.815624-1.374643-.362234-3.150077 1.012674-3.965543zm-3.621078 2.147683c1.374908-.815466 3.150685-.362164 3.966308 1.012479s.362234 3.150077-1.012674 3.965543l-1.810539 1.073842c-1.374908.815466-3.150685.362163-3.966308-1.012479-.815624-1.374643-.362234-3.150077 1.012674-3.965543zm-3.621078 2.147683c1.374908-.815466 3.150685-.362164 3.966308 1.012479s.362234 3.150077-1.012674 3.965543l-1.810539 1.073842c-1.374908.815466-3.150685.362163-3.966308-1.01248-.815624-1.374642-.362234-3.150076 1.012674-3.965543zm-3.621078 2.147683c1.374908-.815466 3.150685-.362164 3.966308 1.012479s.362234 3.150077-1.012674 3.965543l-1.810539 1.073841c-1.374908.815467-3.150685.362164-3.966308-1.012479-.815624-1.374642-.362234-3.150077 1.012674-3.965543zm-3.621078 2.147683c1.374908-.815466 3.150685-.362164 3.966308 1.012479s.362234 3.150077-1.012674 3.965543l-1.810539 1.073841c-1.374908.815466-3.150685.362164-3.966308-1.012479-.815624-1.374643-.362234-3.150077 1.012674-3.965543zm-3.621078 2.147683c1.374908-.815466 3.150684-.362164 3.966308 1.012479.815623 1.374643.362234 3.150077-1.012674 3.965543l-1.81054 1.073841c-1.374908.815466-3.150684.362164-3.966307-1.012479-.815624-1.374643-.362234-3.150077 1.012674-3.965543zm-3.621078 2.147683c1.374908-.815467 3.150684-.362164 3.966308 1.012479.815623 1.374642.362233 3.150077-1.012675 3.965543l-1.810539 1.073841c-1.374908.815466-3.150684.362164-3.966308-1.012479-.815623-1.374643-.362233-3.150077 1.012675-3.965543zm-3.621078 2.147682c1.374908-.815466 3.150684-.362163 3.966308 1.012479.815623 1.374643.362233 3.150077-1.012675 3.965543l-1.810539 1.073842c-1.374908.815466-3.150684.362164-3.966308-1.012479-.815623-1.374643-.362233-3.150077 1.012675-3.965543zm-3.621078 2.147683c1.374908-.815466 3.150684-.362164 3.966308 1.012479.815623 1.374643.362233 3.150077-1.012675 3.965543l-1.810539 1.073842c-1.374908.815466-3.150684.362164-3.966308-1.012479-.815623-1.374643-.362233-3.150077 1.012675-3.965543zm-3.621078 2.147683c1.374908-.815466 3.150684-.362164 3.966308 1.012479.815623 1.374643.362233 3.150077-1.012675 3.965543l-1.810539 1.073842c-1.374908.815466-3.150684.362163-3.966308-1.012479-.815623-1.374643-.362233-3.150077 1.012675-3.965543zm-3.621078 2.147683c1.374908-.815466 3.150684-.362164 3.966308 1.012479.815623 1.374643.362233 3.150077-1.012675 3.965543l-1.810539 1.073841c-1.374908.815467-3.150684.362164-3.966308-1.012479-.815623-1.374642-.362233-3.150076 1.012675-3.965543zm-3.621078 2.147683c1.374908-.815466 3.150684-.362164 3.966308 1.012479.815623 1.374643.362233 3.150077-1.012675 3.965543l-1.810539 1.073841c-1.374908.815466-3.150684.362164-3.966308-1.012479-.815623-1.374643-.362233-3.150077 1.012675-3.965543zm-3.621078 2.147683c1.374908-.815466 3.150684-.362164 3.966308 1.012479.815623 1.374643.362233 3.150077-1.012675 3.965543l-1.810539 1.073841c-1.374908.815466-3.150684.362164-3.966308-1.012479-.815623-1.374643-.362233-3.150077 1.012675-3.965543zm-3.621078 2.147683c1.374908-.815466 3.150684-.362164 3.966308 1.012479.815623 1.374642.362233 3.150077-1.012675 3.965543l-1.810539 1.073841c-1.374908.815466-3.150684.362164-3.966308-1.012479-.815623-1.374643-.362233-3.150077 1.012675-3.965543zm-3.621078 2.147682c1.374908-.815466 3.150684-.362163 3.966307 1.01248.815624 1.374642.362234 3.150076-1.012674 3.965543l-1.810539 1.073841c-1.374908.815466-3.150684.362164-3.966308-1.012479-.815623-1.374643-.362233-3.150077 1.012675-3.965543zm-3.621079 2.147683c1.374908-.815466 3.150685-.362163 3.966308 1.012479.815624 1.374643.362234 3.150077-1.012674 3.965543l-1.810539 1.073842c-1.374908.815466-3.150685.362164-3.966308-1.012479s-.362234-3.150077 1.012674-3.965543zm-3.621078 2.147683c1.374908-.815466 3.150685-.362164 3.966308 1.012479.815624 1.374643.362234 3.150077-1.012674 3.965543l-1.810539 1.073842c-1.374908.815466-3.150685.362163-3.966308-1.012479-.815623-1.374643-.362234-3.150077 1.012674-3.965543zm-3.621078 2.147683c1.374908-.815466 3.150685-.362164 3.966308 1.012479.815624 1.374643.362234 3.150077-1.012674 3.965543l-1.810539 1.073842c-1.374908.815466-3.150685.362163-3.966308-1.012479-.815623-1.374643-.362234-3.150077 1.012674-3.965544zm-3.621078 2.147683c1.374908-.815466 3.150685-.362164 3.966308 1.012479.815624 1.374643.362234 3.150077-1.012674 3.965543l-1.810539 1.073841c-1.374908.815467-3.150685.362164-3.966308-1.012479-.815623-1.374642-.362234-3.150077 1.012674-3.965543zm-3.621078 2.147683c1.374908-.815466 3.150685-.362164 3.966308 1.012479.815624 1.374643.362234 3.150077-1.012674 3.965543l-1.810539 1.073841c-1.374908.815466-3.150685.362164-3.966308-1.012479s-.362234-3.150077 1.012674-3.965543zm-3.621078 2.147683c1.374908-.815466 3.150685-.362164 3.966308 1.012479.815624 1.374643.362234 3.150077-1.012674 3.965543l-1.810539 1.073841c-1.374908.815466-3.150685.362164-3.966308-1.012479-.815624-1.374643-.362234-3.150077 1.012674-3.965543zm-3.621078 2.147683c1.374908-.815467 3.150685-.362164 3.966308 1.012479.815624 1.374642.362234 3.150077-1.012674 3.965543l-1.810539 1.073841c-1.374908.815466-3.150685.362164-3.966308-1.012479-.815624-1.374643-.362234-3.150077 1.012674-3.965543zm-3.621078 2.147682c1.374908-.815466 3.150685-.362163 3.966308 1.012479.815624 1.374643.362234 3.150077-1.012674 3.965543l-1.810539 1.073842c-1.374908.815466-3.150685.362164-3.966308-1.012479-.815624-1.374643-.362234-3.150077 1.012674-3.965543zm-3.621078 2.147683c1.374908-.815466 3.150685-.362164 3.966308 1.012479s.362234 3.150077-1.012674 3.965543l-1.810539 1.073842c-1.374908.815466-3.150685.362164-3.966308-1.012479-.815624-1.374643-.362234-3.150077 1.012674-3.965543zm-3.621078 2.147683c1.374908-.815466 3.150685-.362164 3.966308 1.012479s.362234 3.150077-1.012674 3.965543l-1.810539 1.073842c-1.374908.815466-3.150685.362163-3.966308-1.012479-.815624-1.374643-.362234-3.150077 1.012674-3.965543zm-3.621078 2.147683c1.374908-.815466 3.150685-.362164 3.966308 1.012479s.362234 3.150077-1.012674 3.965543l-1.810539 1.073842c-1.374908.815466-3.150685.362163-3.966308-1.01248-.815624-1.374642-.362234-3.150076 1.012674-3.965543zm-3.621078 2.147683c1.374908-.815466 3.150685-.362164 3.966308 1.012479s.362234 3.150077-1.012674 3.965543l-1.810539 1.073841c-1.374908.815466-3.150685.362164-3.966308-1.012479-.815624-1.374643-.362234-3.150077 1.012674-3.965543zm-3.621078 2.147683c1.374908-.815466 3.150684-.362164 3.966308 1.012479.815623 1.374643.362234 3.150077-1.012674 3.965543l-1.630277.966927c-1.374908.815466-3.150685.362163-3.966308-1.012479-.815624-1.374643-.362234-3.150077 1.012674-3.965543z" fill="#d850ef"/><path d="m620.412218 104.252808.537024.905095-187.210527 111.035673-.537024-.905095z" fill="#e35454"/><path d="m713.564846 21.6418351.537024.9050949-187.210526 111.035674-.537025-.905095z" fill="#e542e4"/><path d="m187.278809 309.990962.537024.905095-187.21052656 111.035674-.53702428-.905095z" fill="#e35454"/><path d="m329.376039 168.973506.537024.905095-187.210526 111.035674-.537025-.905095z" fill="#f09c61"/><path d="m397.793224 237.90368.537024.905095-187.210527 111.035674-.537024-.905095z" fill="#e542e4"/><path d="m399.290001 179.833932c1.374908-.815466 3.150684-.362164 3.966308 1.012479.815623 1.374643.362233 3.150077-1.012675 3.965543l-186.305257 110.498753c-1.374908.815466-3.150685.362164-3.966308-1.012479s-.362234-3.150077 1.012674-3.965543z" fill="#d850ef"/><path d="m885.23459 124.371044c1.347519-.859953 3.137164-.464913 3.997283.882347s.465002 3.136559-.882517 3.996512l-49.470888 31.571073c-1.347519.859953-3.137164.464912-3.997283-.882347-.860119-1.34726-.465002-3.136559.882517-3.996512z" fill="#e35454"/><path d="m397.367433 125.949598c1.34752-.859953 3.137164-.464913 3.997283.882347.860119 1.347259.465003 3.136559-.882517 3.996512l-49.470887 31.571072c-1.34752.859953-3.137164.464913-3.997283-.882347-.860119-1.347259-.465003-3.136559.882517-3.996512z" fill="#e542e4"/><path d="m397.367433 290.119174c1.34752-.859953 3.137164-.464913 3.997283.882347s.465003 3.136559-.882517 3.996512l-49.470887 31.571072c-1.34752.859953-3.137164.464913-3.997283-.882347-.860119-1.347259-.465003-3.136559.882517-3.996512z" fill="#e35454"/></g><g transform="translate(548.604494 166)"><path d="m27.5768696 82.0536805c-.9657546.5651394-1.8269371 1.0371241-2.5896987 1.4221641v-54.8123184c.5905251.3726195 1.2241094.7825008 1.9069041 1.2482751.467499.3105162 1.4332537.9501796 2.7865404 1.8444662 18.367792 12.1660245 29.0833626 19.6432544 35.3392382 24.238894-11.4168192 8.8745528-31.1686545 22.3882176-37.442984 26.058519m43.6927083-52.8622768c-10.5371828-7.402706-22.218508-15.1283489-27.8284967-18.8421226-1.2610172-.83839368-2.1529562-1.43458477-2.5958501-1.72646999-4.8779836-3.29147165-19.72723-13.32114469-31.88220561-6.01780382-7.27699194 4.372068-8.9993569 12.12876251-8.96244908 18.24593151v66.7237196c-.0061513 6.6574672 1.30407633 15.2028726 8.70409434 20.1462906 3.57390725 2.390975 7.40001805 3.279051 11.14001045 3.279051 8.7040944 0 16.9345384-4.819211 20.3239066-6.806515 3.9798933-2.328871 16.7807557-10.7997532 28.5974096-19.3078968 20.8836751-15.0289838 27.3856028-21.0529979 27.3856028-29.3996732 0-7.9616352-5.0379175-12.3647548-24.8820223-26.2945113" fill="#f09c61"/><path d="m185.600441 111c-4.010481 0-7.59392-1.877802-9.920989-4.800209-.117591-.136793-.24756-.261151-.358963-.404163l-44.30096-58.5662793v50.9804573c0 7.06352-5.687703 12.790194-12.712234 12.790194-7.018341 0-12.712234-5.726674-12.712234-12.790194v-85.2845411c0-5.91942867 4.004292-10.88752056 9.432057-12.34872406 4.76554-1.49229293 10.174738-.06839676 13.566318 4.04784458l44.294771 58.57249758v-50.2716181c0-7.06351992 5.693893-12.79641194 12.712234-12.79641194 7.024531 0 12.712234 5.73289202 12.712234 12.79641194v85.2845411c0 7.06352-5.687703 12.790194-12.712234 12.790194" fill="#e35454"/><path d="m298.592838 109.951504c-6.524167 2.711215-14.00979-.379322-16.725592-6.896189l-24.698186-58.9565065-24.748133 59.0124715c-2.715801 6.529304-10.220154 9.619842-16.756808 6.902407-6.542896-2.711215-9.639534-10.1981506-6.923733-16.7212363l36.454174-85.42195204c2.428613-5.81418979 8.653105-8.88607189 14.609139-7.56777431.206027.04352869.418296.09949416.618079.15545962.106135.02487354.21227.04352869.324648.080839 3.639798 1.01359673 6.811355 3.62531834 8.378404 7.39365953l36.373011 85.3100211c2.715802 6.5230857-.374593 13.9975844-6.905003 16.7088004" fill="#d850ef"/></g><g transform="translate(76 166)"><use fill="#000" filter="url(#b)" xlink:href="#a"/><use fill="#fff" fill-rule="evenodd" xlink:href="#a"/></g></g></svg>